<mxfile host="app.diagrams.net" modified="2023-04-05T23:16:08.232Z" agent="Mozilla/5.0 (Windows NT 10.0; Win64; x64) AppleWebKit/537.36 (KHTML, like Gecko) Chrome/111.0.0.0 Safari/537.36 Edg/111.0.1661.62" etag="sXQcf_r36epaj490eYFM" version="21.1.4" type="github" pages="7">
  <diagram name="Page-1" id="1RANx4102WIwLDPeEz-W">
    <mxGraphModel dx="1967" dy="1126" grid="1" gridSize="10" guides="1" tooltips="1" connect="1" arrows="1" fold="1" page="1" pageScale="1" pageWidth="1169" pageHeight="827" math="0" shadow="0">
      <root>
        <mxCell id="0" />
        <mxCell id="1" parent="0" />
        <mxCell id="wOwVRG1pd0MssBesaVP3-1" value="" style="shape=umlLifeline;perimeter=lifelinePerimeter;whiteSpace=wrap;html=1;container=1;dropTarget=0;collapsible=0;recursiveResize=0;outlineConnect=0;portConstraint=eastwest;newEdgeStyle={&quot;edgeStyle&quot;:&quot;elbowEdgeStyle&quot;,&quot;elbow&quot;:&quot;vertical&quot;,&quot;curved&quot;:0,&quot;rounded&quot;:0};participant=umlBoundary;" vertex="1" parent="1">
          <mxGeometry x="495" y="180" width="50" height="560" as="geometry" />
        </mxCell>
        <mxCell id="wOwVRG1pd0MssBesaVP3-2" style="edgeStyle=elbowEdgeStyle;rounded=0;orthogonalLoop=1;jettySize=auto;html=1;elbow=vertical;curved=0;dashed=1;" edge="1" parent="1" source="wOwVRG1pd0MssBesaVP3-4">
          <mxGeometry relative="1" as="geometry">
            <mxPoint x="800" y="480" as="targetPoint" />
          </mxGeometry>
        </mxCell>
        <mxCell id="wOwVRG1pd0MssBesaVP3-3" style="edgeStyle=elbowEdgeStyle;rounded=0;orthogonalLoop=1;jettySize=auto;html=1;elbow=vertical;curved=0;dashed=1;" edge="1" parent="1" source="wOwVRG1pd0MssBesaVP3-4">
          <mxGeometry relative="1" as="geometry">
            <mxPoint x="810" y="590" as="targetPoint" />
          </mxGeometry>
        </mxCell>
        <mxCell id="wOwVRG1pd0MssBesaVP3-4" value="" style="shape=umlLifeline;perimeter=lifelinePerimeter;whiteSpace=wrap;html=1;container=1;dropTarget=0;collapsible=0;recursiveResize=0;outlineConnect=0;portConstraint=eastwest;newEdgeStyle={&quot;edgeStyle&quot;:&quot;elbowEdgeStyle&quot;,&quot;elbow&quot;:&quot;vertical&quot;,&quot;curved&quot;:0,&quot;rounded&quot;:0};participant=umlEntity;" vertex="1" parent="1">
          <mxGeometry x="1025" y="180" width="40" height="580" as="geometry" />
        </mxCell>
        <mxCell id="wOwVRG1pd0MssBesaVP3-5" style="edgeStyle=elbowEdgeStyle;rounded=0;orthogonalLoop=1;jettySize=auto;html=1;elbow=vertical;curved=0;" edge="1" parent="1" source="wOwVRG1pd0MssBesaVP3-7">
          <mxGeometry relative="1" as="geometry">
            <mxPoint x="990" y="380" as="targetPoint" />
          </mxGeometry>
        </mxCell>
        <mxCell id="wOwVRG1pd0MssBesaVP3-6" style="edgeStyle=elbowEdgeStyle;rounded=0;orthogonalLoop=1;jettySize=auto;html=1;elbow=vertical;curved=0;dashed=1;" edge="1" parent="1" source="wOwVRG1pd0MssBesaVP3-7">
          <mxGeometry relative="1" as="geometry">
            <mxPoint x="550" y="510" as="targetPoint" />
          </mxGeometry>
        </mxCell>
        <mxCell id="wOwVRG1pd0MssBesaVP3-7" value="" style="shape=umlLifeline;perimeter=lifelinePerimeter;whiteSpace=wrap;html=1;container=1;dropTarget=0;collapsible=0;recursiveResize=0;outlineConnect=0;portConstraint=eastwest;newEdgeStyle={&quot;edgeStyle&quot;:&quot;elbowEdgeStyle&quot;,&quot;elbow&quot;:&quot;vertical&quot;,&quot;curved&quot;:0,&quot;rounded&quot;:0};participant=umlControl;" vertex="1" parent="1">
          <mxGeometry x="750" y="180" width="40" height="580" as="geometry" />
        </mxCell>
        <mxCell id="wOwVRG1pd0MssBesaVP3-8" value="&lt;div align=&quot;center&quot;&gt;Halaman&lt;br&gt; Stok Barang&lt;/div&gt;" style="text;whiteSpace=wrap;html=1;fontSize=19;align=center;" vertex="1" parent="1">
          <mxGeometry x="400" y="110" width="240" height="50" as="geometry" />
        </mxCell>
        <mxCell id="wOwVRG1pd0MssBesaVP3-9" value="Data Stok Barang" style="text;whiteSpace=wrap;html=1;align=center;fontSize=18;" vertex="1" parent="1">
          <mxGeometry x="980" y="120" width="130" height="40" as="geometry" />
        </mxCell>
        <mxCell id="wOwVRG1pd0MssBesaVP3-10" value="Control Data &lt;br style=&quot;font-size: 19px;&quot;&gt;&lt;div style=&quot;font-size: 19px;&quot;&gt;Stok Barang&lt;/div&gt;" style="text;whiteSpace=wrap;html=1;align=center;fontSize=19;" vertex="1" parent="1">
          <mxGeometry x="680" y="120" width="170" height="40" as="geometry" />
        </mxCell>
        <mxCell id="wOwVRG1pd0MssBesaVP3-11" style="edgeStyle=elbowEdgeStyle;rounded=0;orthogonalLoop=1;jettySize=auto;html=1;elbow=vertical;curved=0;" edge="1" parent="1" source="wOwVRG1pd0MssBesaVP3-12">
          <mxGeometry relative="1" as="geometry">
            <mxPoint x="490" y="310" as="targetPoint" />
          </mxGeometry>
        </mxCell>
        <mxCell id="wOwVRG1pd0MssBesaVP3-12" value="" style="shape=umlLifeline;perimeter=lifelinePerimeter;whiteSpace=wrap;html=1;container=1;dropTarget=0;collapsible=0;recursiveResize=0;outlineConnect=0;portConstraint=eastwest;newEdgeStyle={&quot;edgeStyle&quot;:&quot;elbowEdgeStyle&quot;,&quot;elbow&quot;:&quot;vertical&quot;,&quot;curved&quot;:0,&quot;rounded&quot;:0};participant=umlActor;" vertex="1" parent="1">
          <mxGeometry x="280" y="190" width="20" height="520" as="geometry" />
        </mxCell>
        <mxCell id="wOwVRG1pd0MssBesaVP3-13" style="edgeStyle=elbowEdgeStyle;rounded=0;orthogonalLoop=1;jettySize=auto;html=1;elbow=vertical;curved=0;" edge="1" parent="1" source="wOwVRG1pd0MssBesaVP3-14">
          <mxGeometry relative="1" as="geometry">
            <mxPoint x="740" y="310" as="targetPoint" />
          </mxGeometry>
        </mxCell>
        <mxCell id="wOwVRG1pd0MssBesaVP3-14" value="" style="shape=umlLifeline;perimeter=lifelinePerimeter;whiteSpace=wrap;html=1;container=1;dropTarget=0;collapsible=0;recursiveResize=0;outlineConnect=0;portConstraint=eastwest;newEdgeStyle={&quot;edgeStyle&quot;:&quot;elbowEdgeStyle&quot;,&quot;elbow&quot;:&quot;vertical&quot;,&quot;curved&quot;:0,&quot;rounded&quot;:0};participant=umlActor;" vertex="1" parent="1">
          <mxGeometry x="110" y="190" width="20" height="550" as="geometry" />
        </mxCell>
        <mxCell id="wOwVRG1pd0MssBesaVP3-15" value="Staff Gudang" style="text;whiteSpace=wrap;html=1;fontSize=19;align=center;" vertex="1" parent="1">
          <mxGeometry x="170" y="130" width="240" height="50" as="geometry" />
        </mxCell>
        <mxCell id="wOwVRG1pd0MssBesaVP3-16" value="Staff Penjualan" style="text;whiteSpace=wrap;html=1;fontSize=19;align=center;" vertex="1" parent="1">
          <mxGeometry y="130" width="240" height="40" as="geometry" />
        </mxCell>
        <mxCell id="wOwVRG1pd0MssBesaVP3-17" value="Query Select&amp;nbsp; Data Barang()" style="text;whiteSpace=wrap;html=1;" vertex="1" parent="1">
          <mxGeometry x="820" y="330" width="140" height="50" as="geometry" />
        </mxCell>
        <mxCell id="wOwVRG1pd0MssBesaVP3-18" value="Mengembalikan Data Barang" style="text;align=center;fontStyle=0;verticalAlign=middle;spacingLeft=3;spacingRight=3;strokeColor=none;rotatable=0;points=[[0,0.5],[1,0.5]];portConstraint=eastwest;html=1;" vertex="1" parent="1">
          <mxGeometry x="900" y="450" width="80" height="26" as="geometry" />
        </mxCell>
        <mxCell id="wOwVRG1pd0MssBesaVP3-19" value="menampilkan Data Barang" style="text;align=center;fontStyle=0;verticalAlign=middle;spacingLeft=3;spacingRight=3;strokeColor=none;rotatable=0;points=[[0,0.5],[1,0.5]];portConstraint=eastwest;html=1;" vertex="1" parent="1">
          <mxGeometry x="610" y="476" width="80" height="26" as="geometry" />
        </mxCell>
        <mxCell id="wOwVRG1pd0MssBesaVP3-20" value="Mengembalikan Data null" style="text;align=center;fontStyle=0;verticalAlign=middle;spacingLeft=3;spacingRight=3;strokeColor=none;rotatable=0;points=[[0,0.5],[1,0.5]];portConstraint=eastwest;html=1;" vertex="1" parent="1">
          <mxGeometry x="880" y="560" width="80" height="26" as="geometry" />
        </mxCell>
        <mxCell id="wOwVRG1pd0MssBesaVP3-21" style="edgeStyle=elbowEdgeStyle;rounded=0;orthogonalLoop=1;jettySize=auto;html=1;elbow=vertical;curved=0;dashed=1;" edge="1" parent="1">
          <mxGeometry relative="1" as="geometry">
            <mxPoint x="520" y="604.5" as="targetPoint" />
            <mxPoint x="765" y="604.5" as="sourcePoint" />
          </mxGeometry>
        </mxCell>
        <mxCell id="wOwVRG1pd0MssBesaVP3-22" value="Menampilkan Pesan&lt;br&gt;&quot;data Kosong&quot; " style="text;align=center;fontStyle=0;verticalAlign=middle;spacingLeft=3;spacingRight=3;strokeColor=none;rotatable=0;points=[[0,0.5],[1,0.5]];portConstraint=eastwest;html=1;" vertex="1" parent="1">
          <mxGeometry x="610" y="570" width="80" height="26" as="geometry" />
        </mxCell>
        <mxCell id="wOwVRG1pd0MssBesaVP3-23" value="" style="group;movable=1;resizable=1;rotatable=1;deletable=1;editable=1;locked=0;connectable=1;" vertex="1" connectable="0" parent="1">
          <mxGeometry x="4" y="420" width="1096" height="240" as="geometry" />
        </mxCell>
        <mxCell id="wOwVRG1pd0MssBesaVP3-24" value="Alternative" style="shape=umlFrame;whiteSpace=wrap;html=1;pointerEvents=0;recursiveResize=0;container=0;collapsible=0;width=170;movable=1;resizable=1;rotatable=1;deletable=1;editable=1;locked=0;connectable=1;" vertex="1" parent="wOwVRG1pd0MssBesaVP3-23">
          <mxGeometry width="1091.2961373390558" height="240" as="geometry" />
        </mxCell>
        <mxCell id="wOwVRG1pd0MssBesaVP3-25" value="[else]" style="line;strokeWidth=1;dashed=1;labelPosition=center;verticalLabelPosition=bottom;align=left;verticalAlign=top;spacingLeft=20;spacingTop=15;html=1;whiteSpace=wrap;" vertex="1" parent="wOwVRG1pd0MssBesaVP3-23">
          <mxGeometry y="110" width="1096" height="20" as="geometry" />
        </mxCell>
        <mxCell id="wOwVRG1pd0MssBesaVP3-26" value="[Berhasil]" style="text;align=center;fontStyle=1;verticalAlign=middle;spacingLeft=3;spacingRight=3;strokeColor=none;rotatable=0;points=[[0,0.5],[1,0.5]];portConstraint=eastwest;html=1;" vertex="1" parent="wOwVRG1pd0MssBesaVP3-23">
          <mxGeometry y="40" width="80.0730593607306" height="26" as="geometry" />
        </mxCell>
        <mxCell id="wOwVRG1pd0MssBesaVP3-27" value="Klik Tombol&lt;br&gt;LihatDataBarang()" style="text;whiteSpace=wrap;html=1;" vertex="1" parent="1">
          <mxGeometry x="320" y="260" width="140" height="50" as="geometry" />
        </mxCell>
      </root>
    </mxGraphModel>
  </diagram>
  <diagram id="ePVJI0FRAtfmDlSX30Z0" name="Page-2">
    <mxGraphModel dx="1253" dy="1313" grid="1" gridSize="10" guides="1" tooltips="1" connect="1" arrows="1" fold="1" page="1" pageScale="1" pageWidth="1169" pageHeight="827" math="0" shadow="0">
      <root>
        <mxCell id="0" />
        <mxCell id="1" parent="0" />
        <mxCell id="G8uDdQIkTr1pwJH5Ph0W-11" value="Staff Gudang" style="text;whiteSpace=wrap;html=1;fontSize=19;align=center;" vertex="1" parent="1">
          <mxGeometry x="1600" y="130" width="240" height="50" as="geometry" />
        </mxCell>
        <mxCell id="G8uDdQIkTr1pwJH5Ph0W-32" value="Klik Tombol&lt;br&gt;LihatDataBarang()" style="text;whiteSpace=wrap;html=1;" vertex="1" parent="1">
          <mxGeometry x="1350" y="170" width="140" height="50" as="geometry" />
        </mxCell>
        <mxCell id="G8uDdQIkTr1pwJH5Ph0W-33" value="" style="shape=umlLifeline;perimeter=lifelinePerimeter;whiteSpace=wrap;html=1;container=1;dropTarget=0;collapsible=0;recursiveResize=0;outlineConnect=0;portConstraint=eastwest;newEdgeStyle={&quot;edgeStyle&quot;:&quot;elbowEdgeStyle&quot;,&quot;elbow&quot;:&quot;vertical&quot;,&quot;curved&quot;:0,&quot;rounded&quot;:0};participant=umlBoundary;" vertex="1" parent="1">
          <mxGeometry x="1525" y="90" width="50" height="720" as="geometry" />
        </mxCell>
        <mxCell id="G8uDdQIkTr1pwJH5Ph0W-34" value="" style="html=1;points=[];perimeter=orthogonalPerimeter;outlineConnect=0;targetShapes=umlLifeline;portConstraint=eastwest;newEdgeStyle={&quot;edgeStyle&quot;:&quot;elbowEdgeStyle&quot;,&quot;elbow&quot;:&quot;vertical&quot;,&quot;curved&quot;:0,&quot;rounded&quot;:0};" vertex="1" parent="G8uDdQIkTr1pwJH5Ph0W-33">
          <mxGeometry x="20" y="90" width="10" height="270" as="geometry" />
        </mxCell>
        <mxCell id="G8uDdQIkTr1pwJH5Ph0W-35" value="" style="shape=umlLifeline;perimeter=lifelinePerimeter;whiteSpace=wrap;html=1;container=1;dropTarget=0;collapsible=0;recursiveResize=0;outlineConnect=0;portConstraint=eastwest;newEdgeStyle={&quot;edgeStyle&quot;:&quot;elbowEdgeStyle&quot;,&quot;elbow&quot;:&quot;vertical&quot;,&quot;curved&quot;:0,&quot;rounded&quot;:0};participant=umlEntity;" vertex="1" parent="1">
          <mxGeometry x="2235" y="90" width="40" height="710" as="geometry" />
        </mxCell>
        <mxCell id="G8uDdQIkTr1pwJH5Ph0W-36" value="" style="html=1;points=[];perimeter=orthogonalPerimeter;outlineConnect=0;targetShapes=umlLifeline;portConstraint=eastwest;newEdgeStyle={&quot;edgeStyle&quot;:&quot;elbowEdgeStyle&quot;,&quot;elbow&quot;:&quot;vertical&quot;,&quot;curved&quot;:0,&quot;rounded&quot;:0};" vertex="1" parent="G8uDdQIkTr1pwJH5Ph0W-35">
          <mxGeometry x="16" y="322" width="10" height="328" as="geometry" />
        </mxCell>
        <mxCell id="G8uDdQIkTr1pwJH5Ph0W-37" style="edgeStyle=elbowEdgeStyle;rounded=0;orthogonalLoop=1;jettySize=auto;html=1;elbow=vertical;curved=0;" edge="1" parent="1" target="G8uDdQIkTr1pwJH5Ph0W-35">
          <mxGeometry relative="1" as="geometry">
            <mxPoint x="2335" y="481.75" as="targetPoint" />
            <mxPoint x="2083.2777777777783" y="481.30555555555543" as="sourcePoint" />
          </mxGeometry>
        </mxCell>
        <mxCell id="G8uDdQIkTr1pwJH5Ph0W-38" value="" style="shape=umlLifeline;perimeter=lifelinePerimeter;whiteSpace=wrap;html=1;container=1;dropTarget=0;collapsible=0;recursiveResize=0;outlineConnect=0;portConstraint=eastwest;newEdgeStyle={&quot;edgeStyle&quot;:&quot;elbowEdgeStyle&quot;,&quot;elbow&quot;:&quot;vertical&quot;,&quot;curved&quot;:0,&quot;rounded&quot;:0};participant=umlControl;" vertex="1" parent="1">
          <mxGeometry x="2060" y="90" width="40" height="690" as="geometry" />
        </mxCell>
        <mxCell id="G8uDdQIkTr1pwJH5Ph0W-39" value="" style="html=1;points=[];perimeter=orthogonalPerimeter;outlineConnect=0;targetShapes=umlLifeline;portConstraint=eastwest;newEdgeStyle={&quot;edgeStyle&quot;:&quot;elbowEdgeStyle&quot;,&quot;elbow&quot;:&quot;vertical&quot;,&quot;curved&quot;:0,&quot;rounded&quot;:0};" vertex="1" parent="G8uDdQIkTr1pwJH5Ph0W-38">
          <mxGeometry x="15" y="100" width="10" height="320" as="geometry" />
        </mxCell>
        <mxCell id="G8uDdQIkTr1pwJH5Ph0W-40" value="&lt;div align=&quot;center&quot;&gt;Halaman&lt;br&gt; Stok Barang&lt;/div&gt;" style="text;whiteSpace=wrap;html=1;fontSize=19;align=center;" vertex="1" parent="1">
          <mxGeometry x="1430" y="20" width="240" height="50" as="geometry" />
        </mxCell>
        <mxCell id="G8uDdQIkTr1pwJH5Ph0W-41" value="Data Stok Barang" style="text;whiteSpace=wrap;html=1;align=center;fontSize=18;" vertex="1" parent="1">
          <mxGeometry x="2190" y="30" width="130" height="40" as="geometry" />
        </mxCell>
        <mxCell id="G8uDdQIkTr1pwJH5Ph0W-42" value="Control Data &lt;br style=&quot;font-size: 19px;&quot;&gt;&lt;div style=&quot;font-size: 19px;&quot;&gt;Stok Barang&lt;/div&gt;" style="text;whiteSpace=wrap;html=1;align=center;fontSize=19;" vertex="1" parent="1">
          <mxGeometry x="1990" y="30" width="170" height="40" as="geometry" />
        </mxCell>
        <mxCell id="G8uDdQIkTr1pwJH5Ph0W-43" style="edgeStyle=elbowEdgeStyle;rounded=0;orthogonalLoop=1;jettySize=auto;html=1;elbow=vertical;curved=0;" edge="1" parent="1" source="G8uDdQIkTr1pwJH5Ph0W-44">
          <mxGeometry relative="1" as="geometry">
            <mxPoint x="1520" y="220" as="targetPoint" />
          </mxGeometry>
        </mxCell>
        <mxCell id="G8uDdQIkTr1pwJH5Ph0W-44" value="" style="shape=umlLifeline;perimeter=lifelinePerimeter;whiteSpace=wrap;html=1;container=1;dropTarget=0;collapsible=0;recursiveResize=0;outlineConnect=0;portConstraint=eastwest;newEdgeStyle={&quot;edgeStyle&quot;:&quot;elbowEdgeStyle&quot;,&quot;elbow&quot;:&quot;vertical&quot;,&quot;curved&quot;:0,&quot;rounded&quot;:0};participant=umlActor;" vertex="1" parent="1">
          <mxGeometry x="1310" y="100" width="20" height="680" as="geometry" />
        </mxCell>
        <mxCell id="G8uDdQIkTr1pwJH5Ph0W-45" value="Staff Gudang" style="text;whiteSpace=wrap;html=1;fontSize=19;align=center;" vertex="1" parent="1">
          <mxGeometry x="1200" y="40" width="240" height="50" as="geometry" />
        </mxCell>
        <mxCell id="G8uDdQIkTr1pwJH5Ph0W-46" style="edgeStyle=elbowEdgeStyle;rounded=0;orthogonalLoop=1;jettySize=auto;html=1;elbow=vertical;curved=0;" edge="1" parent="1" source="G8uDdQIkTr1pwJH5Ph0W-47">
          <mxGeometry relative="1" as="geometry">
            <mxPoint x="2050" y="270" as="targetPoint" />
          </mxGeometry>
        </mxCell>
        <mxCell id="G8uDdQIkTr1pwJH5Ph0W-47" value="" style="shape=umlLifeline;perimeter=lifelinePerimeter;whiteSpace=wrap;html=1;container=1;dropTarget=0;collapsible=0;recursiveResize=0;outlineConnect=0;portConstraint=eastwest;newEdgeStyle={&quot;edgeStyle&quot;:&quot;elbowEdgeStyle&quot;,&quot;elbow&quot;:&quot;vertical&quot;,&quot;curved&quot;:0,&quot;rounded&quot;:0};participant=umlBoundary;" vertex="1" parent="1">
          <mxGeometry x="1785" y="98" width="50" height="692" as="geometry" />
        </mxCell>
        <mxCell id="G8uDdQIkTr1pwJH5Ph0W-48" value="" style="html=1;points=[];perimeter=orthogonalPerimeter;outlineConnect=0;targetShapes=umlLifeline;portConstraint=eastwest;newEdgeStyle={&quot;edgeStyle&quot;:&quot;elbowEdgeStyle&quot;,&quot;elbow&quot;:&quot;vertical&quot;,&quot;curved&quot;:0,&quot;rounded&quot;:0};" vertex="1" parent="G8uDdQIkTr1pwJH5Ph0W-47">
          <mxGeometry x="20" y="78" width="10" height="322" as="geometry" />
        </mxCell>
        <mxCell id="G8uDdQIkTr1pwJH5Ph0W-49" value="&lt;div align=&quot;center&quot;&gt;Halaman&lt;br&gt;Tambah Stok Barang&lt;/div&gt;" style="text;whiteSpace=wrap;html=1;fontSize=19;align=center;" vertex="1" parent="1">
          <mxGeometry x="1690" y="28" width="240" height="50" as="geometry" />
        </mxCell>
        <mxCell id="G8uDdQIkTr1pwJH5Ph0W-50" style="edgeStyle=elbowEdgeStyle;rounded=0;orthogonalLoop=1;jettySize=auto;html=1;elbow=vertical;curved=0;" edge="1" parent="1">
          <mxGeometry relative="1" as="geometry">
            <mxPoint x="1760" y="247.57" as="targetPoint" />
            <mxPoint x="1549" y="247.57" as="sourcePoint" />
          </mxGeometry>
        </mxCell>
        <mxCell id="G8uDdQIkTr1pwJH5Ph0W-51" value="Klik Tombol&lt;br&gt;TambahDataBarang()" style="text;whiteSpace=wrap;html=1;" vertex="1" parent="1">
          <mxGeometry x="1575" y="187.57" width="140" height="50" as="geometry" />
        </mxCell>
        <mxCell id="G8uDdQIkTr1pwJH5Ph0W-52" value="Query InsertData()" style="text;whiteSpace=wrap;html=1;" vertex="1" parent="1">
          <mxGeometry x="2125" y="450" width="140" height="73.75" as="geometry" />
        </mxCell>
        <mxCell id="G8uDdQIkTr1pwJH5Ph0W-53" value="&lt;br&gt;TambahDataBarang()" style="text;whiteSpace=wrap;html=1;" vertex="1" parent="1">
          <mxGeometry x="1860" y="220" width="140" height="70" as="geometry" />
        </mxCell>
        <mxCell id="G8uDdQIkTr1pwJH5Ph0W-54" style="edgeStyle=elbowEdgeStyle;rounded=0;orthogonalLoop=1;jettySize=auto;html=1;elbow=vertical;curved=0;" edge="1" parent="1">
          <mxGeometry relative="1" as="geometry">
            <mxPoint x="1840" y="388" as="targetPoint" />
            <mxPoint x="2079.499999999999" y="387.78947368421063" as="sourcePoint" />
          </mxGeometry>
        </mxCell>
        <mxCell id="G8uDdQIkTr1pwJH5Ph0W-55" value="Menampilkan Pesan&lt;br&gt;&quot;Yakin Ingin menambah Data ini?&quot;" style="text;whiteSpace=wrap;html=1;" vertex="1" parent="1">
          <mxGeometry x="1880" y="328" width="140" height="73.75" as="geometry" />
        </mxCell>
        <mxCell id="G8uDdQIkTr1pwJH5Ph0W-56" style="edgeStyle=elbowEdgeStyle;rounded=0;orthogonalLoop=1;jettySize=auto;html=1;elbow=vertical;curved=0;" edge="1" parent="1">
          <mxGeometry relative="1" as="geometry">
            <mxPoint x="2070" y="458" as="targetPoint" />
            <mxPoint x="1820" y="458" as="sourcePoint" />
          </mxGeometry>
        </mxCell>
        <mxCell id="G8uDdQIkTr1pwJH5Ph0W-57" value="Klik Tombol&lt;br&gt;konfirmasiTambahBarang()" style="text;whiteSpace=wrap;html=1;" vertex="1" parent="1">
          <mxGeometry x="1860" y="406.25" width="140" height="73.75" as="geometry" />
        </mxCell>
        <mxCell id="G8uDdQIkTr1pwJH5Ph0W-58" value="" style="group" vertex="1" connectable="0" parent="1">
          <mxGeometry x="1200" y="510" width="1050" height="220" as="geometry" />
        </mxCell>
        <mxCell id="G8uDdQIkTr1pwJH5Ph0W-59" style="edgeStyle=elbowEdgeStyle;rounded=0;orthogonalLoop=1;jettySize=auto;html=1;elbow=vertical;curved=0;dashed=1;" edge="1" parent="G8uDdQIkTr1pwJH5Ph0W-58">
          <mxGeometry relative="1" as="geometry">
            <mxPoint x="333.47639484978544" y="70" as="targetPoint" />
            <mxPoint x="1031.5236051502147" y="70" as="sourcePoint" />
          </mxGeometry>
        </mxCell>
        <mxCell id="G8uDdQIkTr1pwJH5Ph0W-60" value="" style="group;movable=1;resizable=1;rotatable=1;deletable=1;editable=1;locked=0;connectable=1;" vertex="1" connectable="0" parent="G8uDdQIkTr1pwJH5Ph0W-58">
          <mxGeometry width="1050" height="220" as="geometry" />
        </mxCell>
        <mxCell id="G8uDdQIkTr1pwJH5Ph0W-61" value="Alternative" style="shape=umlFrame;whiteSpace=wrap;html=1;pointerEvents=0;recursiveResize=0;container=0;collapsible=0;width=170;movable=1;resizable=1;rotatable=1;deletable=1;editable=1;locked=0;connectable=1;" vertex="1" parent="G8uDdQIkTr1pwJH5Ph0W-60">
          <mxGeometry width="1045.4935622317598" height="220" as="geometry" />
        </mxCell>
        <mxCell id="G8uDdQIkTr1pwJH5Ph0W-62" value="[else]" style="line;strokeWidth=1;dashed=1;labelPosition=center;verticalLabelPosition=bottom;align=left;verticalAlign=top;spacingLeft=20;spacingTop=15;html=1;whiteSpace=wrap;" vertex="1" parent="G8uDdQIkTr1pwJH5Ph0W-60">
          <mxGeometry y="100.83333333333334" width="1050" height="18.333333333333332" as="geometry" />
        </mxCell>
        <mxCell id="G8uDdQIkTr1pwJH5Ph0W-63" value="[Berhasil]" style="text;align=center;fontStyle=1;verticalAlign=middle;spacingLeft=3;spacingRight=3;strokeColor=none;rotatable=0;points=[[0,0.5],[1,0.5]];portConstraint=eastwest;html=1;" vertex="1" parent="G8uDdQIkTr1pwJH5Ph0W-60">
          <mxGeometry y="36.666666666666664" width="76.7123287671233" height="23.833333333333336" as="geometry" />
        </mxCell>
        <mxCell id="G8uDdQIkTr1pwJH5Ph0W-64" value="Menampilkan Pesan &lt;br&gt;&quot;Tambah Data berhasil&quot;" style="text;whiteSpace=wrap;html=1;" vertex="1" parent="G8uDdQIkTr1pwJH5Ph0W-58">
          <mxGeometry x="378.54077253218884" y="20" width="126.18025751072959" height="70" as="geometry" />
        </mxCell>
        <mxCell id="G8uDdQIkTr1pwJH5Ph0W-65" style="edgeStyle=elbowEdgeStyle;rounded=0;orthogonalLoop=1;jettySize=auto;html=1;elbow=vertical;curved=0;dashed=1;" edge="1" parent="G8uDdQIkTr1pwJH5Ph0W-58">
          <mxGeometry relative="1" as="geometry">
            <mxPoint x="333.47639484978544" y="188" as="targetPoint" />
            <mxPoint x="1031.5236051502147" y="188" as="sourcePoint" />
          </mxGeometry>
        </mxCell>
        <mxCell id="G8uDdQIkTr1pwJH5Ph0W-66" value="Menampilkan Pesan &lt;br&gt;&quot;Tambah Data Gagal&quot;" style="text;whiteSpace=wrap;html=1;" vertex="1" parent="G8uDdQIkTr1pwJH5Ph0W-58">
          <mxGeometry x="378.54077253218884" y="138" width="126.18025751072959" height="70" as="geometry" />
        </mxCell>
      </root>
    </mxGraphModel>
  </diagram>
  <diagram id="rj6nXmxJJx2oWex2MJuJ" name="Page-3">
    <mxGraphModel dx="2464" dy="1970" grid="1" gridSize="10" guides="1" tooltips="1" connect="1" arrows="1" fold="1" page="1" pageScale="1" pageWidth="1169" pageHeight="827" math="0" shadow="0">
      <root>
        <mxCell id="0" />
        <mxCell id="1" parent="0" />
        <mxCell id="fX6ip6AoIxCmp--0zVoM-1" value="Klik Tombol&lt;br&gt;LihatDataBarang()" style="text;whiteSpace=wrap;html=1;" vertex="1" parent="1">
          <mxGeometry x="2435.1" y="160" width="140" height="50" as="geometry" />
        </mxCell>
        <mxCell id="fX6ip6AoIxCmp--0zVoM-2" value="" style="shape=umlLifeline;perimeter=lifelinePerimeter;whiteSpace=wrap;html=1;container=1;dropTarget=0;collapsible=0;recursiveResize=0;outlineConnect=0;portConstraint=eastwest;newEdgeStyle={&quot;edgeStyle&quot;:&quot;elbowEdgeStyle&quot;,&quot;elbow&quot;:&quot;vertical&quot;,&quot;curved&quot;:0,&quot;rounded&quot;:0};participant=umlBoundary;" vertex="1" parent="1">
          <mxGeometry x="2610.1" y="80" width="50" height="1497" as="geometry" />
        </mxCell>
        <mxCell id="fX6ip6AoIxCmp--0zVoM-3" value="" style="html=1;points=[];perimeter=orthogonalPerimeter;outlineConnect=0;targetShapes=umlLifeline;portConstraint=eastwest;newEdgeStyle={&quot;edgeStyle&quot;:&quot;elbowEdgeStyle&quot;,&quot;elbow&quot;:&quot;vertical&quot;,&quot;curved&quot;:0,&quot;rounded&quot;:0};" vertex="1" parent="fX6ip6AoIxCmp--0zVoM-2">
          <mxGeometry x="20" y="90" width="10" height="1370" as="geometry" />
        </mxCell>
        <mxCell id="fX6ip6AoIxCmp--0zVoM-4" style="edgeStyle=elbowEdgeStyle;rounded=0;orthogonalLoop=1;jettySize=auto;html=1;elbow=vertical;curved=0;dashed=1;" edge="1" parent="1">
          <mxGeometry relative="1" as="geometry">
            <mxPoint x="3185.1" y="354" as="targetPoint" />
            <mxPoint x="3439.6" y="354" as="sourcePoint" />
          </mxGeometry>
        </mxCell>
        <mxCell id="fX6ip6AoIxCmp--0zVoM-5" value="" style="shape=umlLifeline;perimeter=lifelinePerimeter;whiteSpace=wrap;html=1;container=1;dropTarget=0;collapsible=0;recursiveResize=0;outlineConnect=0;portConstraint=eastwest;newEdgeStyle={&quot;edgeStyle&quot;:&quot;elbowEdgeStyle&quot;,&quot;elbow&quot;:&quot;vertical&quot;,&quot;curved&quot;:0,&quot;rounded&quot;:0};participant=umlEntity;" vertex="1" parent="1">
          <mxGeometry x="3420.1" y="80" width="40" height="1467" as="geometry" />
        </mxCell>
        <mxCell id="fX6ip6AoIxCmp--0zVoM-6" value="" style="html=1;points=[];perimeter=orthogonalPerimeter;outlineConnect=0;targetShapes=umlLifeline;portConstraint=eastwest;newEdgeStyle={&quot;edgeStyle&quot;:&quot;elbowEdgeStyle&quot;,&quot;elbow&quot;:&quot;vertical&quot;,&quot;curved&quot;:0,&quot;rounded&quot;:0};" vertex="1" parent="fX6ip6AoIxCmp--0zVoM-5">
          <mxGeometry x="15" y="107" width="10" height="203" as="geometry" />
        </mxCell>
        <mxCell id="fX6ip6AoIxCmp--0zVoM-7" value="" style="html=1;points=[];perimeter=orthogonalPerimeter;outlineConnect=0;targetShapes=umlLifeline;portConstraint=eastwest;newEdgeStyle={&quot;edgeStyle&quot;:&quot;elbowEdgeStyle&quot;,&quot;elbow&quot;:&quot;vertical&quot;,&quot;curved&quot;:0,&quot;rounded&quot;:0};" vertex="1" parent="fX6ip6AoIxCmp--0zVoM-5">
          <mxGeometry x="15" y="1114" width="10" height="296" as="geometry" />
        </mxCell>
        <mxCell id="fX6ip6AoIxCmp--0zVoM-8" style="edgeStyle=elbowEdgeStyle;rounded=0;orthogonalLoop=1;jettySize=auto;html=1;elbow=vertical;curved=0;" edge="1" parent="1" source="fX6ip6AoIxCmp--0zVoM-10">
          <mxGeometry relative="1" as="geometry">
            <mxPoint x="3415.1" y="280" as="targetPoint" />
          </mxGeometry>
        </mxCell>
        <mxCell id="fX6ip6AoIxCmp--0zVoM-9" style="edgeStyle=elbowEdgeStyle;rounded=0;orthogonalLoop=1;jettySize=auto;html=1;elbow=vertical;curved=0;" edge="1" parent="1">
          <mxGeometry relative="1" as="geometry">
            <mxPoint x="2925.1" y="578.75" as="targetPoint" />
            <mxPoint x="3164.599999999999" y="578.5394736842106" as="sourcePoint" />
          </mxGeometry>
        </mxCell>
        <mxCell id="fX6ip6AoIxCmp--0zVoM-10" value="" style="shape=umlLifeline;perimeter=lifelinePerimeter;whiteSpace=wrap;html=1;container=1;dropTarget=0;collapsible=0;recursiveResize=0;outlineConnect=0;portConstraint=eastwest;newEdgeStyle={&quot;edgeStyle&quot;:&quot;elbowEdgeStyle&quot;,&quot;elbow&quot;:&quot;vertical&quot;,&quot;curved&quot;:0,&quot;rounded&quot;:0};participant=umlControl;" vertex="1" parent="1">
          <mxGeometry x="3145.1" y="80" width="40" height="1477" as="geometry" />
        </mxCell>
        <mxCell id="fX6ip6AoIxCmp--0zVoM-11" style="edgeStyle=elbowEdgeStyle;rounded=0;orthogonalLoop=1;jettySize=auto;html=1;elbow=vertical;curved=0;" edge="1" parent="fX6ip6AoIxCmp--0zVoM-10" source="fX6ip6AoIxCmp--0zVoM-12">
          <mxGeometry relative="1" as="geometry">
            <mxPoint x="-220" y="317" as="targetPoint" />
          </mxGeometry>
        </mxCell>
        <mxCell id="fX6ip6AoIxCmp--0zVoM-12" value="" style="html=1;points=[];perimeter=orthogonalPerimeter;outlineConnect=0;targetShapes=umlLifeline;portConstraint=eastwest;newEdgeStyle={&quot;edgeStyle&quot;:&quot;elbowEdgeStyle&quot;,&quot;elbow&quot;:&quot;vertical&quot;,&quot;curved&quot;:0,&quot;rounded&quot;:0};" vertex="1" parent="fX6ip6AoIxCmp--0zVoM-10">
          <mxGeometry x="15" y="100" width="10" height="1320" as="geometry" />
        </mxCell>
        <mxCell id="fX6ip6AoIxCmp--0zVoM-13" value="&lt;div align=&quot;center&quot;&gt;Halaman&lt;br&gt; Stok Barang&lt;/div&gt;" style="text;whiteSpace=wrap;html=1;fontSize=19;align=center;" vertex="1" parent="1">
          <mxGeometry x="2515.1" y="10" width="240" height="50" as="geometry" />
        </mxCell>
        <mxCell id="fX6ip6AoIxCmp--0zVoM-14" value="Data Stok Barang" style="text;whiteSpace=wrap;html=1;align=center;fontSize=18;" vertex="1" parent="1">
          <mxGeometry x="3375.1" y="20" width="130" height="40" as="geometry" />
        </mxCell>
        <mxCell id="fX6ip6AoIxCmp--0zVoM-15" value="Control Data &lt;br style=&quot;font-size: 19px;&quot;&gt;&lt;div style=&quot;font-size: 19px;&quot;&gt;Stok Barang&lt;/div&gt;" style="text;whiteSpace=wrap;html=1;align=center;fontSize=19;" vertex="1" parent="1">
          <mxGeometry x="3075.1" y="20" width="170" height="40" as="geometry" />
        </mxCell>
        <mxCell id="fX6ip6AoIxCmp--0zVoM-16" style="edgeStyle=elbowEdgeStyle;rounded=0;orthogonalLoop=1;jettySize=auto;html=1;elbow=vertical;curved=0;" edge="1" parent="1">
          <mxGeometry relative="1" as="geometry">
            <mxPoint x="2605.1" y="210" as="targetPoint" />
            <mxPoint x="2403.6" y="211" as="sourcePoint" />
          </mxGeometry>
        </mxCell>
        <mxCell id="fX6ip6AoIxCmp--0zVoM-17" value="" style="shape=umlLifeline;perimeter=lifelinePerimeter;whiteSpace=wrap;html=1;container=1;dropTarget=0;collapsible=0;recursiveResize=0;outlineConnect=0;portConstraint=eastwest;newEdgeStyle={&quot;edgeStyle&quot;:&quot;elbowEdgeStyle&quot;,&quot;elbow&quot;:&quot;vertical&quot;,&quot;curved&quot;:0,&quot;rounded&quot;:0};participant=umlActor;" vertex="1" parent="1">
          <mxGeometry x="3140" y="183" width="20" height="1697" as="geometry" />
        </mxCell>
        <mxCell id="fX6ip6AoIxCmp--0zVoM-19" value="" style="shape=umlLifeline;perimeter=lifelinePerimeter;whiteSpace=wrap;html=1;container=1;dropTarget=0;collapsible=0;recursiveResize=0;outlineConnect=0;portConstraint=eastwest;newEdgeStyle={&quot;edgeStyle&quot;:&quot;elbowEdgeStyle&quot;,&quot;elbow&quot;:&quot;vertical&quot;,&quot;curved&quot;:0,&quot;rounded&quot;:0};participant=umlBoundary;" vertex="1" parent="1">
          <mxGeometry x="2870.1" y="88" width="50" height="1469" as="geometry" />
        </mxCell>
        <mxCell id="fX6ip6AoIxCmp--0zVoM-20" value="" style="html=1;points=[];perimeter=orthogonalPerimeter;outlineConnect=0;targetShapes=umlLifeline;portConstraint=eastwest;newEdgeStyle={&quot;edgeStyle&quot;:&quot;elbowEdgeStyle&quot;,&quot;elbow&quot;:&quot;vertical&quot;,&quot;curved&quot;:0,&quot;rounded&quot;:0};" vertex="1" parent="fX6ip6AoIxCmp--0zVoM-19">
          <mxGeometry x="20" y="234" width="10" height="716" as="geometry" />
        </mxCell>
        <mxCell id="fX6ip6AoIxCmp--0zVoM-21" value="&lt;div align=&quot;center&quot;&gt;Halaman&lt;br&gt; Edit Stok Barang&lt;/div&gt;" style="text;whiteSpace=wrap;html=1;fontSize=19;align=center;" vertex="1" parent="1">
          <mxGeometry x="2775.1" y="18" width="240" height="50" as="geometry" />
        </mxCell>
        <mxCell id="fX6ip6AoIxCmp--0zVoM-22" style="edgeStyle=elbowEdgeStyle;rounded=0;orthogonalLoop=1;jettySize=auto;html=1;elbow=vertical;curved=0;" edge="1" parent="1">
          <mxGeometry relative="1" as="geometry">
            <mxPoint x="3155.1" y="238" as="targetPoint" />
            <mxPoint x="2645.1" y="238" as="sourcePoint" />
          </mxGeometry>
        </mxCell>
        <mxCell id="fX6ip6AoIxCmp--0zVoM-23" value="Klik Tombol&lt;br&gt;editDataBarang()" style="text;whiteSpace=wrap;html=1;" vertex="1" parent="1">
          <mxGeometry x="2660.1" y="177.57" width="140" height="50" as="geometry" />
        </mxCell>
        <mxCell id="fX6ip6AoIxCmp--0zVoM-24" style="edgeStyle=elbowEdgeStyle;rounded=0;orthogonalLoop=1;jettySize=auto;html=1;elbow=vertical;curved=0;" edge="1" parent="1">
          <mxGeometry relative="1" as="geometry">
            <mxPoint x="3154.6" y="1075.91" as="targetPoint" />
            <mxPoint x="2625.1" y="1075.91" as="sourcePoint" />
          </mxGeometry>
        </mxCell>
        <mxCell id="fX6ip6AoIxCmp--0zVoM-25" value="Klik Tombol&lt;br&gt;HapusBarang()" style="text;whiteSpace=wrap;html=1;" vertex="1" parent="1">
          <mxGeometry x="2651.1" y="1015.9100000000001" width="140" height="50" as="geometry" />
        </mxCell>
        <mxCell id="fX6ip6AoIxCmp--0zVoM-26" value="Query getData()" style="text;whiteSpace=wrap;html=1;" vertex="1" parent="1">
          <mxGeometry x="3245.1" y="246.25" width="140" height="73.75" as="geometry" />
        </mxCell>
        <mxCell id="fX6ip6AoIxCmp--0zVoM-27" value="Return Data Informasi Stok barang" style="text;whiteSpace=wrap;html=1;" vertex="1" parent="1">
          <mxGeometry x="3246.1" y="307" width="140" height="70" as="geometry" />
        </mxCell>
        <mxCell id="fX6ip6AoIxCmp--0zVoM-28" style="edgeStyle=elbowEdgeStyle;rounded=0;orthogonalLoop=1;jettySize=auto;html=1;elbow=vertical;curved=0;" edge="1" parent="1">
          <mxGeometry relative="1" as="geometry">
            <mxPoint x="3420.1" y="1250.75" as="targetPoint" />
            <mxPoint x="3169.1" y="1250.75" as="sourcePoint" />
          </mxGeometry>
        </mxCell>
        <mxCell id="fX6ip6AoIxCmp--0zVoM-29" value="Query deleteData()" style="text;whiteSpace=wrap;html=1;" vertex="1" parent="1">
          <mxGeometry x="3250.1" y="1217" width="140" height="73.75" as="geometry" />
        </mxCell>
        <mxCell id="fX6ip6AoIxCmp--0zVoM-30" value="menampilkanStokBarang()" style="text;whiteSpace=wrap;html=1;" vertex="1" parent="1">
          <mxGeometry x="2965.1" y="357" width="140" height="70" as="geometry" />
        </mxCell>
        <mxCell id="fX6ip6AoIxCmp--0zVoM-31" style="edgeStyle=elbowEdgeStyle;rounded=0;orthogonalLoop=1;jettySize=auto;html=1;elbow=vertical;curved=0;" edge="1" parent="1">
          <mxGeometry relative="1" as="geometry">
            <mxPoint x="3145.1" y="493.87" as="targetPoint" />
            <mxPoint x="2895.1" y="493.87" as="sourcePoint" />
          </mxGeometry>
        </mxCell>
        <mxCell id="fX6ip6AoIxCmp--0zVoM-32" value="Klik Tombol&lt;br&gt;EditBarang()" style="text;whiteSpace=wrap;html=1;" vertex="1" parent="1">
          <mxGeometry x="2945.1" y="445" width="140" height="73.75" as="geometry" />
        </mxCell>
        <mxCell id="fX6ip6AoIxCmp--0zVoM-33" value=" " style="group;movable=1;resizable=1;rotatable=1;deletable=1;editable=1;locked=0;connectable=1;" vertex="1" connectable="0" parent="1">
          <mxGeometry x="2695.1" y="717" width="825" height="220" as="geometry" />
        </mxCell>
        <mxCell id="fX6ip6AoIxCmp--0zVoM-34" value="Alternative" style="shape=umlFrame;whiteSpace=wrap;html=1;pointerEvents=0;recursiveResize=0;container=0;collapsible=0;width=170;movable=1;resizable=1;rotatable=1;deletable=1;editable=1;locked=0;connectable=1;" vertex="1" parent="fX6ip6AoIxCmp--0zVoM-33">
          <mxGeometry x="-2.2448979591836733" width="821.4592274678112" height="220" as="geometry" />
        </mxCell>
        <mxCell id="fX6ip6AoIxCmp--0zVoM-35" value="" style="line;strokeWidth=1;dashed=1;labelPosition=center;verticalLabelPosition=bottom;align=left;verticalAlign=top;spacingLeft=20;spacingTop=15;html=1;whiteSpace=wrap;" vertex="1" parent="fX6ip6AoIxCmp--0zVoM-33">
          <mxGeometry y="100.83" width="820" height="18.33" as="geometry" />
        </mxCell>
        <mxCell id="fX6ip6AoIxCmp--0zVoM-36" value="[Berhasil]" style="text;align=center;fontStyle=1;verticalAlign=middle;spacingLeft=3;spacingRight=3;strokeColor=none;rotatable=0;points=[[0,0.5],[1,0.5]];portConstraint=eastwest;html=1;" vertex="1" parent="fX6ip6AoIxCmp--0zVoM-33">
          <mxGeometry x="11.224489795918366" y="39.99666666666666" width="60.273972602739725" height="23.833333333333336" as="geometry" />
        </mxCell>
        <mxCell id="fX6ip6AoIxCmp--0zVoM-37" style="edgeStyle=elbowEdgeStyle;rounded=0;orthogonalLoop=1;jettySize=auto;html=1;elbow=vertical;curved=0;dashed=1;" edge="1" parent="fX6ip6AoIxCmp--0zVoM-33">
          <mxGeometry relative="1" as="geometry">
            <mxPoint x="489.9995918367346" y="161" as="targetPoint" />
            <mxPoint x="740" y="161" as="sourcePoint" />
          </mxGeometry>
        </mxCell>
        <mxCell id="fX6ip6AoIxCmp--0zVoM-38" value="Return data Informasi gagal" style="text;whiteSpace=wrap;html=1;" vertex="1" parent="fX6ip6AoIxCmp--0zVoM-33">
          <mxGeometry x="521.9387755102041" y="120" width="157.14285714285714" height="70" as="geometry" />
        </mxCell>
        <mxCell id="fX6ip6AoIxCmp--0zVoM-39" style="edgeStyle=elbowEdgeStyle;rounded=0;orthogonalLoop=1;jettySize=auto;html=1;elbow=vertical;curved=0;dashed=1;" edge="1" parent="fX6ip6AoIxCmp--0zVoM-33">
          <mxGeometry relative="1" as="geometry">
            <mxPoint x="220" y="189" as="targetPoint" />
            <mxPoint x="465.66714285714284" y="189.42000000000002" as="sourcePoint" />
          </mxGeometry>
        </mxCell>
        <mxCell id="fX6ip6AoIxCmp--0zVoM-40" value="Menampilkan pesan&lt;br&gt;&quot;Gagal Mengubah data&quot;" style="text;whiteSpace=wrap;html=1;" vertex="1" parent="fX6ip6AoIxCmp--0zVoM-33">
          <mxGeometry x="269.9995918367347" y="140" width="157.14285714285714" height="70" as="geometry" />
        </mxCell>
        <mxCell id="fX6ip6AoIxCmp--0zVoM-41" value="[Else]" style="text;whiteSpace=wrap;html=1;" vertex="1" parent="fX6ip6AoIxCmp--0zVoM-33">
          <mxGeometry x="11.2199999999998" y="130" width="80" height="40" as="geometry" />
        </mxCell>
        <mxCell id="fX6ip6AoIxCmp--0zVoM-42" value="" style="html=1;points=[];perimeter=orthogonalPerimeter;outlineConnect=0;targetShapes=umlLifeline;portConstraint=eastwest;newEdgeStyle={&quot;edgeStyle&quot;:&quot;elbowEdgeStyle&quot;,&quot;elbow&quot;:&quot;vertical&quot;,&quot;curved&quot;:0,&quot;rounded&quot;:0};" vertex="1" parent="fX6ip6AoIxCmp--0zVoM-33">
          <mxGeometry x="740" y="-73" width="10" height="263" as="geometry" />
        </mxCell>
        <mxCell id="fX6ip6AoIxCmp--0zVoM-43" value="Menampilkan Pesan&lt;br&gt;&quot;Yakin Ingin Mengubah Data ini?&quot;" style="text;whiteSpace=wrap;html=1;" vertex="1" parent="1">
          <mxGeometry x="2965.1" y="518.75" width="140" height="73.75" as="geometry" />
        </mxCell>
        <mxCell id="fX6ip6AoIxCmp--0zVoM-44" style="edgeStyle=elbowEdgeStyle;rounded=0;orthogonalLoop=1;jettySize=auto;html=1;elbow=vertical;curved=0;" edge="1" parent="1">
          <mxGeometry relative="1" as="geometry">
            <mxPoint x="3145.1" y="645.87" as="targetPoint" />
            <mxPoint x="2895.1" y="645.87" as="sourcePoint" />
          </mxGeometry>
        </mxCell>
        <mxCell id="fX6ip6AoIxCmp--0zVoM-45" value="Klik Tombol&lt;br&gt;KonfirmasiDataBarang()" style="text;whiteSpace=wrap;html=1;" vertex="1" parent="1">
          <mxGeometry x="2945.1" y="597" width="140" height="73.75" as="geometry" />
        </mxCell>
        <mxCell id="fX6ip6AoIxCmp--0zVoM-46" style="edgeStyle=elbowEdgeStyle;rounded=0;orthogonalLoop=1;jettySize=auto;html=1;elbow=vertical;curved=0;" edge="1" parent="1">
          <mxGeometry relative="1" as="geometry">
            <mxPoint x="3420.1" y="697" as="targetPoint" />
            <mxPoint x="3169.1" y="697" as="sourcePoint" />
          </mxGeometry>
        </mxCell>
        <mxCell id="fX6ip6AoIxCmp--0zVoM-47" value="Query updateData()" style="text;whiteSpace=wrap;html=1;" vertex="1" parent="1">
          <mxGeometry x="3250.1" y="663.25" width="140" height="73.75" as="geometry" />
        </mxCell>
        <mxCell id="fX6ip6AoIxCmp--0zVoM-48" style="edgeStyle=elbowEdgeStyle;rounded=0;orthogonalLoop=1;jettySize=auto;html=1;elbow=vertical;curved=0;dashed=1;" edge="1" parent="1">
          <mxGeometry relative="1" as="geometry">
            <mxPoint x="3185.1" y="778" as="targetPoint" />
            <mxPoint x="3439.6" y="778" as="sourcePoint" />
          </mxGeometry>
        </mxCell>
        <mxCell id="fX6ip6AoIxCmp--0zVoM-49" value="Return data Informasi sukses " style="text;whiteSpace=wrap;html=1;" vertex="1" parent="1">
          <mxGeometry x="3250.1" y="737" width="140" height="70" as="geometry" />
        </mxCell>
        <mxCell id="fX6ip6AoIxCmp--0zVoM-50" style="edgeStyle=elbowEdgeStyle;rounded=0;orthogonalLoop=1;jettySize=auto;html=1;elbow=vertical;curved=0;dashed=1;" edge="1" parent="1">
          <mxGeometry relative="1" as="geometry">
            <mxPoint x="2915.1" y="808" as="targetPoint" />
            <mxPoint x="3162.35" y="808" as="sourcePoint" />
          </mxGeometry>
        </mxCell>
        <mxCell id="fX6ip6AoIxCmp--0zVoM-51" value="Menampilkan pesan&lt;br&gt;&quot;Sukses Mengubah data&quot;" style="text;whiteSpace=wrap;html=1;" vertex="1" parent="1">
          <mxGeometry x="2955.1" y="757" width="140" height="70" as="geometry" />
        </mxCell>
        <mxCell id="fX6ip6AoIxCmp--0zVoM-52" style="edgeStyle=elbowEdgeStyle;rounded=0;orthogonalLoop=1;jettySize=auto;html=1;elbow=vertical;curved=0;" edge="1" parent="1">
          <mxGeometry relative="1" as="geometry">
            <mxPoint x="2665.1" y="1147" as="targetPoint" />
            <mxPoint x="3149.849999999999" y="1146.7894736842106" as="sourcePoint" />
          </mxGeometry>
        </mxCell>
        <mxCell id="fX6ip6AoIxCmp--0zVoM-53" value="Menampilkan Pesan&lt;br&gt;&quot;Yakin Ingin Menghapus Data ini?&quot;" style="text;whiteSpace=wrap;html=1;" vertex="1" parent="1">
          <mxGeometry x="2950.35" y="1087" width="140" height="73.75" as="geometry" />
        </mxCell>
        <mxCell id="fX6ip6AoIxCmp--0zVoM-54" style="edgeStyle=elbowEdgeStyle;rounded=0;orthogonalLoop=1;jettySize=auto;html=1;elbow=vertical;curved=0;" edge="1" parent="1">
          <mxGeometry relative="1" as="geometry">
            <mxPoint x="3115.1" y="1210" as="targetPoint" />
            <mxPoint x="2645.1" y="1209.62" as="sourcePoint" />
          </mxGeometry>
        </mxCell>
        <mxCell id="fX6ip6AoIxCmp--0zVoM-55" value="Klik Tombol&lt;br&gt;KonfirmasiHapus()" style="text;whiteSpace=wrap;html=1;" vertex="1" parent="1">
          <mxGeometry x="2695.1" y="1167" width="140" height="73.75" as="geometry" />
        </mxCell>
        <mxCell id="fX6ip6AoIxCmp--0zVoM-56" style="edgeStyle=elbowEdgeStyle;rounded=0;orthogonalLoop=1;jettySize=auto;html=1;elbow=vertical;curved=0;dashed=1;" edge="1" parent="1">
          <mxGeometry relative="1" as="geometry">
            <mxPoint x="3185.1" y="1348" as="targetPoint" />
            <mxPoint x="3439.6" y="1348" as="sourcePoint" />
          </mxGeometry>
        </mxCell>
        <mxCell id="fX6ip6AoIxCmp--0zVoM-57" value="Return data Informasi sukses " style="text;whiteSpace=wrap;html=1;" vertex="1" parent="1">
          <mxGeometry x="3250.1" y="1307" width="140" height="70" as="geometry" />
        </mxCell>
        <mxCell id="fX6ip6AoIxCmp--0zVoM-58" value="Alternative" style="shape=umlFrame;whiteSpace=wrap;html=1;pointerEvents=0;recursiveResize=0;container=0;collapsible=0;width=170;movable=1;resizable=1;rotatable=1;deletable=1;editable=1;locked=0;connectable=1;" vertex="1" parent="1">
          <mxGeometry x="2423.160408163265" y="1290.75" width="1090.3004291845493" height="220" as="geometry" />
        </mxCell>
        <mxCell id="fX6ip6AoIxCmp--0zVoM-59" value="" style="line;strokeWidth=1;dashed=1;labelPosition=center;verticalLabelPosition=bottom;align=left;verticalAlign=top;spacingLeft=20;spacingTop=15;html=1;whiteSpace=wrap;" vertex="1" parent="1">
          <mxGeometry x="2425.1" y="1387.83" width="1088.3636363636363" height="18.33" as="geometry" />
        </mxCell>
        <mxCell id="fX6ip6AoIxCmp--0zVoM-60" value="[Berhasil]" style="text;align=center;fontStyle=1;verticalAlign=middle;spacingLeft=3;spacingRight=3;strokeColor=none;rotatable=0;points=[[0,0.5],[1,0.5]];portConstraint=eastwest;html=1;" vertex="1" parent="1">
          <mxGeometry x="2439.997959183673" y="1326.9966666666667" width="80" height="23.833333333333336" as="geometry" />
        </mxCell>
        <mxCell id="fX6ip6AoIxCmp--0zVoM-61" style="edgeStyle=elbowEdgeStyle;rounded=0;orthogonalLoop=1;jettySize=auto;html=1;elbow=vertical;curved=0;dashed=1;" edge="1" parent="1" source="fX6ip6AoIxCmp--0zVoM-10">
          <mxGeometry relative="1" as="geometry">
            <mxPoint x="2665.1" y="1477" as="targetPoint" />
            <mxPoint x="3043.1672987012985" y="1476.42" as="sourcePoint" />
          </mxGeometry>
        </mxCell>
        <mxCell id="fX6ip6AoIxCmp--0zVoM-62" value="Menampilkan pesan&lt;br&gt;&quot;Gagal Mengubah data&quot;" style="text;whiteSpace=wrap;html=1;" vertex="1" parent="1">
          <mxGeometry x="2783.463094619666" y="1427" width="208.57142857142858" height="70" as="geometry" />
        </mxCell>
        <mxCell id="fX6ip6AoIxCmp--0zVoM-63" value="[Else]" style="text;whiteSpace=wrap;html=1;" vertex="1" parent="1">
          <mxGeometry x="2439.9919999999997" y="1417" width="106.18181818181819" height="40" as="geometry" />
        </mxCell>
        <mxCell id="fX6ip6AoIxCmp--0zVoM-64" style="edgeStyle=elbowEdgeStyle;rounded=0;orthogonalLoop=1;jettySize=auto;html=1;elbow=vertical;curved=0;dashed=1;" edge="1" parent="1">
          <mxGeometry relative="1" as="geometry">
            <mxPoint x="3185.1" y="1458" as="targetPoint" />
            <mxPoint x="3439.6" y="1458" as="sourcePoint" />
          </mxGeometry>
        </mxCell>
        <mxCell id="fX6ip6AoIxCmp--0zVoM-65" value="Return data Informasi Gagal " style="text;whiteSpace=wrap;html=1;" vertex="1" parent="1">
          <mxGeometry x="3250.1" y="1417" width="140" height="70" as="geometry" />
        </mxCell>
        <mxCell id="fX6ip6AoIxCmp--0zVoM-66" value="Menampilkan pesan&lt;br&gt;&quot;Sukses Mengubah data&quot;" style="text;whiteSpace=wrap;html=1;" vertex="1" parent="1">
          <mxGeometry x="2975.1" y="1317.83" width="140" height="70" as="geometry" />
        </mxCell>
        <mxCell id="fX6ip6AoIxCmp--0zVoM-67" style="edgeStyle=elbowEdgeStyle;rounded=0;orthogonalLoop=1;jettySize=auto;html=1;elbow=vertical;curved=0;dashed=1;" edge="1" parent="1">
          <mxGeometry relative="1" as="geometry">
            <mxPoint x="2665.1" y="1369" as="targetPoint" />
            <mxPoint x="3162.35" y="1368.83" as="sourcePoint" />
          </mxGeometry>
        </mxCell>
        <mxCell id="fX6ip6AoIxCmp--0zVoM-68" value="" style="shape=umlLifeline;perimeter=lifelinePerimeter;whiteSpace=wrap;html=1;container=1;dropTarget=0;collapsible=0;recursiveResize=0;outlineConnect=0;portConstraint=eastwest;newEdgeStyle={&quot;edgeStyle&quot;:&quot;elbowEdgeStyle&quot;,&quot;elbow&quot;:&quot;vertical&quot;,&quot;curved&quot;:0,&quot;rounded&quot;:0};participant=umlActor;" vertex="1" parent="1">
          <mxGeometry x="2390" y="80" width="20" height="1500" as="geometry" />
        </mxCell>
        <mxCell id="fX6ip6AoIxCmp--0zVoM-69" value="Staff Gudang" style="text;whiteSpace=wrap;html=1;fontSize=19;align=center;" vertex="1" parent="1">
          <mxGeometry x="2280" y="20" width="240" height="50" as="geometry" />
        </mxCell>
      </root>
    </mxGraphModel>
  </diagram>
  <diagram id="0Xt7V39SauXleWPBI10T" name="Page-4">
    <mxGraphModel dx="2906" dy="749" grid="1" gridSize="10" guides="1" tooltips="1" connect="1" arrows="1" fold="1" page="1" pageScale="1" pageWidth="1169" pageHeight="827" math="0" shadow="0">
      <root>
        <mxCell id="0" />
        <mxCell id="1" parent="0" />
        <mxCell id="oMmGCjcVvOHZ7Zjm9zdX-1" value="" style="shape=umlLifeline;perimeter=lifelinePerimeter;whiteSpace=wrap;html=1;container=1;dropTarget=0;collapsible=0;recursiveResize=0;outlineConnect=0;portConstraint=eastwest;newEdgeStyle={&quot;edgeStyle&quot;:&quot;elbowEdgeStyle&quot;,&quot;elbow&quot;:&quot;vertical&quot;,&quot;curved&quot;:0,&quot;rounded&quot;:0};participant=umlBoundary;" vertex="1" parent="1">
          <mxGeometry x="420" y="960" width="50" height="546.25" as="geometry" />
        </mxCell>
        <mxCell id="oMmGCjcVvOHZ7Zjm9zdX-2" value="" style="html=1;points=[];perimeter=orthogonalPerimeter;outlineConnect=0;targetShapes=umlLifeline;portConstraint=eastwest;newEdgeStyle={&quot;edgeStyle&quot;:&quot;elbowEdgeStyle&quot;,&quot;elbow&quot;:&quot;vertical&quot;,&quot;curved&quot;:0,&quot;rounded&quot;:0};" vertex="1" parent="oMmGCjcVvOHZ7Zjm9zdX-1">
          <mxGeometry x="20" y="216.25" width="10" height="283.75" as="geometry" />
        </mxCell>
        <mxCell id="oMmGCjcVvOHZ7Zjm9zdX-3" style="edgeStyle=elbowEdgeStyle;rounded=0;orthogonalLoop=1;jettySize=auto;html=1;elbow=vertical;curved=0;dashed=1;" edge="1" parent="1" source="oMmGCjcVvOHZ7Zjm9zdX-5">
          <mxGeometry relative="1" as="geometry">
            <mxPoint x="725" y="1260" as="targetPoint" />
          </mxGeometry>
        </mxCell>
        <mxCell id="oMmGCjcVvOHZ7Zjm9zdX-4" style="edgeStyle=elbowEdgeStyle;rounded=0;orthogonalLoop=1;jettySize=auto;html=1;elbow=vertical;curved=0;dashed=1;" edge="1" parent="1" source="oMmGCjcVvOHZ7Zjm9zdX-5">
          <mxGeometry relative="1" as="geometry">
            <mxPoint x="735" y="1370" as="targetPoint" />
          </mxGeometry>
        </mxCell>
        <mxCell id="oMmGCjcVvOHZ7Zjm9zdX-5" value="" style="shape=umlLifeline;perimeter=lifelinePerimeter;whiteSpace=wrap;html=1;container=1;dropTarget=0;collapsible=0;recursiveResize=0;outlineConnect=0;portConstraint=eastwest;newEdgeStyle={&quot;edgeStyle&quot;:&quot;elbowEdgeStyle&quot;,&quot;elbow&quot;:&quot;vertical&quot;,&quot;curved&quot;:0,&quot;rounded&quot;:0};participant=umlEntity;" vertex="1" parent="1">
          <mxGeometry x="950" y="960" width="40" height="536.25" as="geometry" />
        </mxCell>
        <mxCell id="oMmGCjcVvOHZ7Zjm9zdX-6" style="edgeStyle=elbowEdgeStyle;rounded=0;orthogonalLoop=1;jettySize=auto;html=1;elbow=vertical;curved=0;" edge="1" parent="1" source="oMmGCjcVvOHZ7Zjm9zdX-8">
          <mxGeometry relative="1" as="geometry">
            <mxPoint x="915" y="1160" as="targetPoint" />
          </mxGeometry>
        </mxCell>
        <mxCell id="oMmGCjcVvOHZ7Zjm9zdX-7" style="edgeStyle=elbowEdgeStyle;rounded=0;orthogonalLoop=1;jettySize=auto;html=1;elbow=vertical;curved=0;dashed=1;" edge="1" parent="1" source="oMmGCjcVvOHZ7Zjm9zdX-8">
          <mxGeometry relative="1" as="geometry">
            <mxPoint x="475" y="1290" as="targetPoint" />
          </mxGeometry>
        </mxCell>
        <mxCell id="oMmGCjcVvOHZ7Zjm9zdX-8" value="" style="shape=umlLifeline;perimeter=lifelinePerimeter;whiteSpace=wrap;html=1;container=1;dropTarget=0;collapsible=0;recursiveResize=0;outlineConnect=0;portConstraint=eastwest;newEdgeStyle={&quot;edgeStyle&quot;:&quot;elbowEdgeStyle&quot;,&quot;elbow&quot;:&quot;vertical&quot;,&quot;curved&quot;:0,&quot;rounded&quot;:0};participant=umlControl;" vertex="1" parent="1">
          <mxGeometry x="675" y="960" width="40" height="536.25" as="geometry" />
        </mxCell>
        <mxCell id="oMmGCjcVvOHZ7Zjm9zdX-9" value="" style="html=1;points=[];perimeter=orthogonalPerimeter;outlineConnect=0;targetShapes=umlLifeline;portConstraint=eastwest;newEdgeStyle={&quot;edgeStyle&quot;:&quot;elbowEdgeStyle&quot;,&quot;elbow&quot;:&quot;vertical&quot;,&quot;curved&quot;:0,&quot;rounded&quot;:0};" vertex="1" parent="oMmGCjcVvOHZ7Zjm9zdX-8">
          <mxGeometry x="15" y="150.62" width="10" height="316.75" as="geometry" />
        </mxCell>
        <mxCell id="oMmGCjcVvOHZ7Zjm9zdX-10" value="&lt;div align=&quot;center&quot;&gt;Halaman&lt;br&gt;Daftar Nota&lt;br&gt;&lt;/div&gt;" style="text;whiteSpace=wrap;html=1;fontSize=19;align=center;" vertex="1" parent="1">
          <mxGeometry x="325" y="890" width="240" height="50" as="geometry" />
        </mxCell>
        <mxCell id="oMmGCjcVvOHZ7Zjm9zdX-11" value="Data Daftar Nota" style="text;whiteSpace=wrap;html=1;align=center;fontSize=18;" vertex="1" parent="1">
          <mxGeometry x="905" y="900" width="130" height="40" as="geometry" />
        </mxCell>
        <mxCell id="oMmGCjcVvOHZ7Zjm9zdX-12" value="Control Data &lt;br style=&quot;font-size: 19px;&quot;&gt;&lt;div style=&quot;font-size: 19px;&quot;&gt;Daftar Nota&lt;/div&gt;" style="text;whiteSpace=wrap;html=1;align=center;fontSize=19;" vertex="1" parent="1">
          <mxGeometry x="610" y="900" width="170" height="40" as="geometry" />
        </mxCell>
        <mxCell id="oMmGCjcVvOHZ7Zjm9zdX-13" style="edgeStyle=elbowEdgeStyle;rounded=0;orthogonalLoop=1;jettySize=auto;html=1;elbow=vertical;curved=0;" edge="1" parent="1">
          <mxGeometry relative="1" as="geometry">
            <mxPoint x="665" y="1090.25" as="targetPoint" />
            <mxPoint x="213.5" y="1090.25" as="sourcePoint" />
            <Array as="points">
              <mxPoint x="585" y="1090.25" />
            </Array>
          </mxGeometry>
        </mxCell>
        <mxCell id="oMmGCjcVvOHZ7Zjm9zdX-14" value="" style="shape=umlLifeline;perimeter=lifelinePerimeter;whiteSpace=wrap;html=1;container=1;dropTarget=0;collapsible=0;recursiveResize=0;outlineConnect=0;portConstraint=eastwest;newEdgeStyle={&quot;edgeStyle&quot;:&quot;elbowEdgeStyle&quot;,&quot;elbow&quot;:&quot;vertical&quot;,&quot;curved&quot;:0,&quot;rounded&quot;:0};participant=umlActor;" vertex="1" parent="1">
          <mxGeometry x="205" y="960" width="20" height="546.25" as="geometry" />
        </mxCell>
        <mxCell id="oMmGCjcVvOHZ7Zjm9zdX-15" value="Staff Penjualan" style="text;whiteSpace=wrap;html=1;fontSize=19;align=center;" vertex="1" parent="1">
          <mxGeometry x="100" y="913.1300000000001" width="240" height="40" as="geometry" />
        </mxCell>
        <mxCell id="oMmGCjcVvOHZ7Zjm9zdX-16" value="Query SelectNotaPembelian()" style="text;whiteSpace=wrap;html=1;" vertex="1" parent="1">
          <mxGeometry x="745" y="1110" width="140" height="50" as="geometry" />
        </mxCell>
        <mxCell id="oMmGCjcVvOHZ7Zjm9zdX-17" value="Mengembalikan Data Nota" style="text;align=center;fontStyle=0;verticalAlign=middle;spacingLeft=3;spacingRight=3;strokeColor=none;rotatable=0;points=[[0,0.5],[1,0.5]];portConstraint=eastwest;html=1;" vertex="1" parent="1">
          <mxGeometry x="825" y="1230" width="80" height="26" as="geometry" />
        </mxCell>
        <mxCell id="oMmGCjcVvOHZ7Zjm9zdX-18" value="menampilkan Data Nota" style="text;align=center;fontStyle=0;verticalAlign=middle;spacingLeft=3;spacingRight=3;strokeColor=none;rotatable=0;points=[[0,0.5],[1,0.5]];portConstraint=eastwest;html=1;" vertex="1" parent="1">
          <mxGeometry x="535" y="1256" width="80" height="26" as="geometry" />
        </mxCell>
        <mxCell id="oMmGCjcVvOHZ7Zjm9zdX-19" value="Mengembalikan Data null" style="text;align=center;fontStyle=0;verticalAlign=middle;spacingLeft=3;spacingRight=3;strokeColor=none;rotatable=0;points=[[0,0.5],[1,0.5]];portConstraint=eastwest;html=1;" vertex="1" parent="1">
          <mxGeometry x="805" y="1340" width="80" height="26" as="geometry" />
        </mxCell>
        <mxCell id="oMmGCjcVvOHZ7Zjm9zdX-20" style="edgeStyle=elbowEdgeStyle;rounded=0;orthogonalLoop=1;jettySize=auto;html=1;elbow=vertical;curved=0;dashed=1;" edge="1" parent="1">
          <mxGeometry relative="1" as="geometry">
            <mxPoint x="445" y="1384.5" as="targetPoint" />
            <mxPoint x="690" y="1384.5" as="sourcePoint" />
          </mxGeometry>
        </mxCell>
        <mxCell id="oMmGCjcVvOHZ7Zjm9zdX-21" value="Menampilkan Pesan&lt;br&gt;&quot;data Kosong&quot; " style="text;align=center;fontStyle=0;verticalAlign=middle;spacingLeft=3;spacingRight=3;strokeColor=none;rotatable=0;points=[[0,0.5],[1,0.5]];portConstraint=eastwest;html=1;" vertex="1" parent="1">
          <mxGeometry x="535" y="1350" width="80" height="26" as="geometry" />
        </mxCell>
        <mxCell id="oMmGCjcVvOHZ7Zjm9zdX-22" value="" style="group;movable=1;resizable=1;rotatable=1;deletable=1;editable=1;locked=0;connectable=1;" vertex="1" connectable="0" parent="1">
          <mxGeometry x="105" y="1200" width="905" height="240" as="geometry" />
        </mxCell>
        <mxCell id="oMmGCjcVvOHZ7Zjm9zdX-23" value="Alternative" style="shape=umlFrame;whiteSpace=wrap;html=1;pointerEvents=0;recursiveResize=0;container=0;collapsible=0;width=170;movable=1;resizable=1;rotatable=1;deletable=1;editable=1;locked=0;connectable=1;" vertex="1" parent="oMmGCjcVvOHZ7Zjm9zdX-22">
          <mxGeometry width="901.1158798283262" height="240" as="geometry" />
        </mxCell>
        <mxCell id="oMmGCjcVvOHZ7Zjm9zdX-24" value="[else]" style="line;strokeWidth=1;dashed=1;labelPosition=center;verticalLabelPosition=bottom;align=left;verticalAlign=top;spacingLeft=20;spacingTop=15;html=1;whiteSpace=wrap;" vertex="1" parent="oMmGCjcVvOHZ7Zjm9zdX-22">
          <mxGeometry y="110" width="905" height="20" as="geometry" />
        </mxCell>
        <mxCell id="oMmGCjcVvOHZ7Zjm9zdX-25" value="[Berhasil]" style="text;align=center;fontStyle=1;verticalAlign=middle;spacingLeft=3;spacingRight=3;strokeColor=none;rotatable=0;points=[[0,0.5],[1,0.5]];portConstraint=eastwest;html=1;" vertex="1" parent="oMmGCjcVvOHZ7Zjm9zdX-22">
          <mxGeometry y="40" width="66.11872146118722" height="26" as="geometry" />
        </mxCell>
        <mxCell id="oMmGCjcVvOHZ7Zjm9zdX-26" value="" style="html=1;points=[];perimeter=orthogonalPerimeter;outlineConnect=0;targetShapes=umlLifeline;portConstraint=eastwest;newEdgeStyle={&quot;edgeStyle&quot;:&quot;elbowEdgeStyle&quot;,&quot;elbow&quot;:&quot;vertical&quot;,&quot;curved&quot;:0,&quot;rounded&quot;:0};" vertex="1" parent="oMmGCjcVvOHZ7Zjm9zdX-22">
          <mxGeometry x="860" y="-93.75" width="10" height="316.75" as="geometry" />
        </mxCell>
        <mxCell id="oMmGCjcVvOHZ7Zjm9zdX-27" value="Klik Tombol&lt;br&gt;LihatDataNota()" style="text;whiteSpace=wrap;html=1;" vertex="1" parent="1">
          <mxGeometry x="245" y="1040" width="140" height="50" as="geometry" />
        </mxCell>
      </root>
    </mxGraphModel>
  </diagram>
  <diagram id="KNDHbGr06p0jS3d7d85a" name="Page-5">
    <mxGraphModel dx="1066" dy="385" grid="1" gridSize="10" guides="1" tooltips="1" connect="1" arrows="1" fold="1" page="1" pageScale="1" pageWidth="1169" pageHeight="827" math="0" shadow="0">
      <root>
        <mxCell id="0" />
        <mxCell id="1" parent="0" />
        <mxCell id="VOTVQKsXQV5rnhYj9p5z-2" value="" style="shape=umlLifeline;perimeter=lifelinePerimeter;whiteSpace=wrap;html=1;container=1;dropTarget=0;collapsible=0;recursiveResize=0;outlineConnect=0;portConstraint=eastwest;newEdgeStyle={&quot;edgeStyle&quot;:&quot;elbowEdgeStyle&quot;,&quot;elbow&quot;:&quot;vertical&quot;,&quot;curved&quot;:0,&quot;rounded&quot;:0};participant=umlEntity;" vertex="1" parent="1">
          <mxGeometry x="2210" y="892" width="40" height="708" as="geometry" />
        </mxCell>
        <mxCell id="VOTVQKsXQV5rnhYj9p5z-3" value="" style="html=1;points=[];perimeter=orthogonalPerimeter;outlineConnect=0;targetShapes=umlLifeline;portConstraint=eastwest;newEdgeStyle={&quot;edgeStyle&quot;:&quot;elbowEdgeStyle&quot;,&quot;elbow&quot;:&quot;vertical&quot;,&quot;curved&quot;:0,&quot;rounded&quot;:0};" vertex="1" parent="VOTVQKsXQV5rnhYj9p5z-2">
          <mxGeometry x="15" y="350" width="10" height="320" as="geometry" />
        </mxCell>
        <mxCell id="VOTVQKsXQV5rnhYj9p5z-4" style="edgeStyle=elbowEdgeStyle;rounded=0;orthogonalLoop=1;jettySize=auto;html=1;elbow=vertical;curved=0;" edge="1" parent="1">
          <mxGeometry relative="1" as="geometry">
            <mxPoint x="2220" y="1300" as="targetPoint" />
            <mxPoint x="2056" y="1300.25" as="sourcePoint" />
          </mxGeometry>
        </mxCell>
        <mxCell id="VOTVQKsXQV5rnhYj9p5z-6" value="&lt;div align=&quot;center&quot;&gt;Halaman&lt;br&gt;Daftar Nota&lt;br&gt;&lt;/div&gt;" style="text;whiteSpace=wrap;html=1;fontSize=19;align=center;" vertex="1" parent="1">
          <mxGeometry x="1409" y="827" width="240" height="50" as="geometry" />
        </mxCell>
        <mxCell id="VOTVQKsXQV5rnhYj9p5z-7" style="edgeStyle=elbowEdgeStyle;rounded=0;orthogonalLoop=1;jettySize=auto;html=1;elbow=vertical;curved=0;" edge="1" parent="1">
          <mxGeometry relative="1" as="geometry">
            <mxPoint x="1499" y="1027" as="targetPoint" />
            <mxPoint x="1296" y="1028.25" as="sourcePoint" />
          </mxGeometry>
        </mxCell>
        <mxCell id="VOTVQKsXQV5rnhYj9p5z-8" style="edgeStyle=elbowEdgeStyle;rounded=0;orthogonalLoop=1;jettySize=auto;html=1;elbow=vertical;curved=0;" edge="1" parent="1">
          <mxGeometry relative="1" as="geometry">
            <mxPoint x="2029" y="1077" as="targetPoint" />
            <mxPoint x="1786" y="1076.25" as="sourcePoint" />
          </mxGeometry>
        </mxCell>
        <mxCell id="VOTVQKsXQV5rnhYj9p5z-10" value="&lt;div align=&quot;center&quot;&gt;Halaman&lt;br&gt;Tambah Daftar Nota&lt;br&gt;&lt;/div&gt;" style="text;whiteSpace=wrap;html=1;fontSize=19;align=center;" vertex="1" parent="1">
          <mxGeometry x="1669" y="835" width="240" height="50" as="geometry" />
        </mxCell>
        <mxCell id="VOTVQKsXQV5rnhYj9p5z-11" style="edgeStyle=elbowEdgeStyle;rounded=0;orthogonalLoop=1;jettySize=auto;html=1;elbow=vertical;curved=0;" edge="1" parent="1">
          <mxGeometry relative="1" as="geometry">
            <mxPoint x="1739" y="1054.57" as="targetPoint" />
            <mxPoint x="1528" y="1054.57" as="sourcePoint" />
          </mxGeometry>
        </mxCell>
        <mxCell id="VOTVQKsXQV5rnhYj9p5z-12" value="Klik Tombol&lt;br&gt;buatNota()" style="text;whiteSpace=wrap;html=1;" vertex="1" parent="1">
          <mxGeometry x="1554" y="994.5699999999999" width="140" height="50" as="geometry" />
        </mxCell>
        <mxCell id="VOTVQKsXQV5rnhYj9p5z-13" value="Query InsertDataNota()" style="text;whiteSpace=wrap;html=1;" vertex="1" parent="1">
          <mxGeometry x="2080" y="1261.62" width="140" height="73.75" as="geometry" />
        </mxCell>
        <mxCell id="VOTVQKsXQV5rnhYj9p5z-14" value="&lt;br&gt;buatNota()" style="text;whiteSpace=wrap;html=1;" vertex="1" parent="1">
          <mxGeometry x="1839" y="1027" width="140" height="70" as="geometry" />
        </mxCell>
        <mxCell id="VOTVQKsXQV5rnhYj9p5z-15" value="Staff Penjualan" style="text;whiteSpace=wrap;html=1;fontSize=19;align=center;" vertex="1" parent="1">
          <mxGeometry x="1199" y="844" width="240" height="40" as="geometry" />
        </mxCell>
        <mxCell id="VOTVQKsXQV5rnhYj9p5z-16" value="Klik Tombol&lt;br&gt;LihatDataNota()" style="text;whiteSpace=wrap;html=1;" vertex="1" parent="1">
          <mxGeometry x="1319" y="974.0799999999999" width="140" height="50" as="geometry" />
        </mxCell>
        <mxCell id="VOTVQKsXQV5rnhYj9p5z-17" value="Data Daftar Nota" style="text;whiteSpace=wrap;html=1;align=center;fontSize=18;" vertex="1" parent="1">
          <mxGeometry x="2170" y="827" width="130" height="40" as="geometry" />
        </mxCell>
        <mxCell id="VOTVQKsXQV5rnhYj9p5z-18" value="Control Data &lt;br style=&quot;font-size: 19px;&quot;&gt;&lt;div style=&quot;font-size: 19px;&quot;&gt;Daftar Nota&lt;/div&gt;" style="text;whiteSpace=wrap;html=1;align=center;fontSize=19;" vertex="1" parent="1">
          <mxGeometry x="1979" y="832" width="170" height="40" as="geometry" />
        </mxCell>
        <mxCell id="VOTVQKsXQV5rnhYj9p5z-19" style="edgeStyle=elbowEdgeStyle;rounded=0;orthogonalLoop=1;jettySize=auto;html=1;elbow=vertical;curved=0;" edge="1" parent="1">
          <mxGeometry relative="1" as="geometry">
            <mxPoint x="1799.25" y="1204" as="targetPoint" />
            <mxPoint x="2038.749999999999" y="1203.7894736842106" as="sourcePoint" />
          </mxGeometry>
        </mxCell>
        <mxCell id="VOTVQKsXQV5rnhYj9p5z-20" value="Menampilkan Pesan&lt;br&gt;&quot;Yakin Ingin menambah Nota Baru ini?&quot;" style="text;whiteSpace=wrap;html=1;" vertex="1" parent="1">
          <mxGeometry x="1839.25" y="1144" width="140" height="73.75" as="geometry" />
        </mxCell>
        <mxCell id="VOTVQKsXQV5rnhYj9p5z-21" style="edgeStyle=elbowEdgeStyle;rounded=0;orthogonalLoop=1;jettySize=auto;html=1;elbow=vertical;curved=0;" edge="1" parent="1">
          <mxGeometry relative="1" as="geometry">
            <mxPoint x="2039" y="1278.88" as="targetPoint" />
            <mxPoint x="1789" y="1278.88" as="sourcePoint" />
          </mxGeometry>
        </mxCell>
        <mxCell id="VOTVQKsXQV5rnhYj9p5z-22" value="Klik Tombol&lt;br&gt;konfirmasiTambahBarang()" style="text;whiteSpace=wrap;html=1;" vertex="1" parent="1">
          <mxGeometry x="1829" y="1227.13" width="140" height="73.75" as="geometry" />
        </mxCell>
        <mxCell id="VOTVQKsXQV5rnhYj9p5z-23" value="" style="group" vertex="1" connectable="0" parent="1">
          <mxGeometry x="1169" y="1330.25" width="1051" height="220" as="geometry" />
        </mxCell>
        <mxCell id="VOTVQKsXQV5rnhYj9p5z-24" style="edgeStyle=elbowEdgeStyle;rounded=0;orthogonalLoop=1;jettySize=auto;html=1;elbow=vertical;curved=0;dashed=1;" edge="1" parent="VOTVQKsXQV5rnhYj9p5z-23">
          <mxGeometry relative="1" as="geometry">
            <mxPoint x="371" y="69.75" as="targetPoint" />
            <mxPoint x="1032.506008583691" y="70" as="sourcePoint" />
          </mxGeometry>
        </mxCell>
        <mxCell id="VOTVQKsXQV5rnhYj9p5z-25" value="" style="group;movable=1;resizable=1;rotatable=1;deletable=1;editable=1;locked=0;connectable=1;" vertex="1" connectable="0" parent="VOTVQKsXQV5rnhYj9p5z-23">
          <mxGeometry x="130" width="921" height="220" as="geometry" />
        </mxCell>
        <mxCell id="VOTVQKsXQV5rnhYj9p5z-26" value="Alternative" style="shape=umlFrame;whiteSpace=wrap;html=1;pointerEvents=0;recursiveResize=0;container=0;collapsible=0;width=170;movable=1;resizable=1;rotatable=1;deletable=1;editable=1;locked=0;connectable=1;" vertex="1" parent="VOTVQKsXQV5rnhYj9p5z-25">
          <mxGeometry width="917.0472103004291" height="220" as="geometry" />
        </mxCell>
        <mxCell id="VOTVQKsXQV5rnhYj9p5z-27" value="[else]" style="line;strokeWidth=1;dashed=1;labelPosition=center;verticalLabelPosition=bottom;align=left;verticalAlign=top;spacingLeft=20;spacingTop=15;html=1;whiteSpace=wrap;" vertex="1" parent="VOTVQKsXQV5rnhYj9p5z-25">
          <mxGeometry y="100.83333333333334" width="921" height="18.333333333333332" as="geometry" />
        </mxCell>
        <mxCell id="VOTVQKsXQV5rnhYj9p5z-28" value="[Berhasil]" style="text;align=center;fontStyle=1;verticalAlign=middle;spacingLeft=3;spacingRight=3;strokeColor=none;rotatable=0;points=[[0,0.5],[1,0.5]];portConstraint=eastwest;html=1;" vertex="1" parent="VOTVQKsXQV5rnhYj9p5z-25">
          <mxGeometry y="36.666666666666664" width="67.2876712328767" height="23.833333333333336" as="geometry" />
        </mxCell>
        <mxCell id="VOTVQKsXQV5rnhYj9p5z-31" value="Menampilkan Pesan &lt;br&gt;&quot;Tambah Data Gagal&quot;" style="text;whiteSpace=wrap;html=1;" vertex="1" parent="VOTVQKsXQV5rnhYj9p5z-25">
          <mxGeometry x="281.00128755364807" y="138" width="126.30042918454934" height="70" as="geometry" />
        </mxCell>
        <mxCell id="VOTVQKsXQV5rnhYj9p5z-29" value="Menampilkan Pesan &lt;br&gt;&quot;Tambah Data berhasil&quot;" style="text;whiteSpace=wrap;html=1;" vertex="1" parent="VOTVQKsXQV5rnhYj9p5z-25">
          <mxGeometry x="291.00128755364807" y="13.58" width="126.30042918454934" height="70" as="geometry" />
        </mxCell>
        <mxCell id="VOTVQKsXQV5rnhYj9p5z-30" style="edgeStyle=elbowEdgeStyle;rounded=0;orthogonalLoop=1;jettySize=auto;html=1;elbow=vertical;curved=0;dashed=1;" edge="1" parent="VOTVQKsXQV5rnhYj9p5z-23">
          <mxGeometry relative="1" as="geometry">
            <mxPoint x="371" y="187.75" as="targetPoint" />
            <mxPoint x="1032.506008583691" y="188" as="sourcePoint" />
          </mxGeometry>
        </mxCell>
        <mxCell id="VOTVQKsXQV5rnhYj9p5z-32" value="" style="shape=umlLifeline;perimeter=lifelinePerimeter;whiteSpace=wrap;html=1;container=1;dropTarget=0;collapsible=0;recursiveResize=0;outlineConnect=0;portConstraint=eastwest;newEdgeStyle={&quot;edgeStyle&quot;:&quot;elbowEdgeStyle&quot;,&quot;elbow&quot;:&quot;vertical&quot;,&quot;curved&quot;:0,&quot;rounded&quot;:0};participant=umlBoundary;" vertex="1" parent="1">
          <mxGeometry x="1495" y="892" width="50" height="738" as="geometry" />
        </mxCell>
        <mxCell id="VOTVQKsXQV5rnhYj9p5z-33" value="" style="html=1;points=[];perimeter=orthogonalPerimeter;outlineConnect=0;targetShapes=umlLifeline;portConstraint=eastwest;newEdgeStyle={&quot;edgeStyle&quot;:&quot;elbowEdgeStyle&quot;,&quot;elbow&quot;:&quot;vertical&quot;,&quot;curved&quot;:0,&quot;rounded&quot;:0};" vertex="1" parent="VOTVQKsXQV5rnhYj9p5z-32">
          <mxGeometry x="20" y="90" width="10" height="550" as="geometry" />
        </mxCell>
        <mxCell id="VOTVQKsXQV5rnhYj9p5z-34" value="" style="shape=umlLifeline;perimeter=lifelinePerimeter;whiteSpace=wrap;html=1;container=1;dropTarget=0;collapsible=0;recursiveResize=0;outlineConnect=0;portConstraint=eastwest;newEdgeStyle={&quot;edgeStyle&quot;:&quot;elbowEdgeStyle&quot;,&quot;elbow&quot;:&quot;vertical&quot;,&quot;curved&quot;:0,&quot;rounded&quot;:0};participant=umlControl;" vertex="1" parent="1">
          <mxGeometry x="2030" y="892" width="40" height="728" as="geometry" />
        </mxCell>
        <mxCell id="VOTVQKsXQV5rnhYj9p5z-35" value="" style="html=1;points=[];perimeter=orthogonalPerimeter;outlineConnect=0;targetShapes=umlLifeline;portConstraint=eastwest;newEdgeStyle={&quot;edgeStyle&quot;:&quot;elbowEdgeStyle&quot;,&quot;elbow&quot;:&quot;vertical&quot;,&quot;curved&quot;:0,&quot;rounded&quot;:0};" vertex="1" parent="VOTVQKsXQV5rnhYj9p5z-34">
          <mxGeometry x="15" y="100" width="10" height="330" as="geometry" />
        </mxCell>
        <mxCell id="VOTVQKsXQV5rnhYj9p5z-36" value="" style="shape=umlLifeline;perimeter=lifelinePerimeter;whiteSpace=wrap;html=1;container=1;dropTarget=0;collapsible=0;recursiveResize=0;outlineConnect=0;portConstraint=eastwest;newEdgeStyle={&quot;edgeStyle&quot;:&quot;elbowEdgeStyle&quot;,&quot;elbow&quot;:&quot;vertical&quot;,&quot;curved&quot;:0,&quot;rounded&quot;:0};participant=umlActor;" vertex="1" parent="1">
          <mxGeometry x="1280" y="902" width="20" height="698" as="geometry" />
        </mxCell>
        <mxCell id="VOTVQKsXQV5rnhYj9p5z-37" value="" style="shape=umlLifeline;perimeter=lifelinePerimeter;whiteSpace=wrap;html=1;container=1;dropTarget=0;collapsible=0;recursiveResize=0;outlineConnect=0;portConstraint=eastwest;newEdgeStyle={&quot;edgeStyle&quot;:&quot;elbowEdgeStyle&quot;,&quot;elbow&quot;:&quot;vertical&quot;,&quot;curved&quot;:0,&quot;rounded&quot;:0};participant=umlBoundary;" vertex="1" parent="1">
          <mxGeometry x="1755" y="900" width="50" height="720" as="geometry" />
        </mxCell>
        <mxCell id="VOTVQKsXQV5rnhYj9p5z-38" value="" style="html=1;points=[];perimeter=orthogonalPerimeter;outlineConnect=0;targetShapes=umlLifeline;portConstraint=eastwest;newEdgeStyle={&quot;edgeStyle&quot;:&quot;elbowEdgeStyle&quot;,&quot;elbow&quot;:&quot;vertical&quot;,&quot;curved&quot;:0,&quot;rounded&quot;:0};" vertex="1" parent="VOTVQKsXQV5rnhYj9p5z-37">
          <mxGeometry x="20" y="78" width="10" height="332" as="geometry" />
        </mxCell>
      </root>
    </mxGraphModel>
  </diagram>
  <diagram id="UeWjQiT71Uh0snDsPVvu" name="Page-6">
    <mxGraphModel dx="-262" dy="-528" grid="1" gridSize="10" guides="1" tooltips="1" connect="1" arrows="1" fold="1" page="1" pageScale="1" pageWidth="1169" pageHeight="827" math="0" shadow="0">
      <root>
        <mxCell id="0" />
        <mxCell id="1" parent="0" />
        <mxCell id="R1UwBUNqDxqeCILbl6Mw-1" value="Klik Tombol&lt;br&gt;LihatNotaPembelian()" style="text;whiteSpace=wrap;html=1;" vertex="1" parent="1">
          <mxGeometry x="2478" y="1814" width="140" height="50" as="geometry" />
        </mxCell>
        <mxCell id="R1UwBUNqDxqeCILbl6Mw-2" value="" style="shape=umlLifeline;perimeter=lifelinePerimeter;whiteSpace=wrap;html=1;container=1;dropTarget=0;collapsible=0;recursiveResize=0;outlineConnect=0;portConstraint=eastwest;newEdgeStyle={&quot;edgeStyle&quot;:&quot;elbowEdgeStyle&quot;,&quot;elbow&quot;:&quot;vertical&quot;,&quot;curved&quot;:0,&quot;rounded&quot;:0};participant=umlBoundary;" vertex="1" parent="1">
          <mxGeometry x="2653" y="1734" width="50" height="1490" as="geometry" />
        </mxCell>
        <mxCell id="R1UwBUNqDxqeCILbl6Mw-3" value="" style="html=1;points=[];perimeter=orthogonalPerimeter;outlineConnect=0;targetShapes=umlLifeline;portConstraint=eastwest;newEdgeStyle={&quot;edgeStyle&quot;:&quot;elbowEdgeStyle&quot;,&quot;elbow&quot;:&quot;vertical&quot;,&quot;curved&quot;:0,&quot;rounded&quot;:0};" vertex="1" parent="R1UwBUNqDxqeCILbl6Mw-2">
          <mxGeometry x="20" y="90" width="10" height="1350" as="geometry" />
        </mxCell>
        <mxCell id="R1UwBUNqDxqeCILbl6Mw-4" style="edgeStyle=elbowEdgeStyle;rounded=0;orthogonalLoop=1;jettySize=auto;html=1;elbow=vertical;curved=0;dashed=1;" edge="1" parent="1">
          <mxGeometry relative="1" as="geometry">
            <mxPoint x="3228" y="2008" as="targetPoint" />
            <mxPoint x="3482.5" y="2008" as="sourcePoint" />
          </mxGeometry>
        </mxCell>
        <mxCell id="R1UwBUNqDxqeCILbl6Mw-5" value="" style="shape=umlLifeline;perimeter=lifelinePerimeter;whiteSpace=wrap;html=1;container=1;dropTarget=0;collapsible=0;recursiveResize=0;outlineConnect=0;portConstraint=eastwest;newEdgeStyle={&quot;edgeStyle&quot;:&quot;elbowEdgeStyle&quot;,&quot;elbow&quot;:&quot;vertical&quot;,&quot;curved&quot;:0,&quot;rounded&quot;:0};participant=umlEntity;" vertex="1" parent="1">
          <mxGeometry x="3463" y="1734" width="40" height="1467" as="geometry" />
        </mxCell>
        <mxCell id="R1UwBUNqDxqeCILbl6Mw-6" value="" style="html=1;points=[];perimeter=orthogonalPerimeter;outlineConnect=0;targetShapes=umlLifeline;portConstraint=eastwest;newEdgeStyle={&quot;edgeStyle&quot;:&quot;elbowEdgeStyle&quot;,&quot;elbow&quot;:&quot;vertical&quot;,&quot;curved&quot;:0,&quot;rounded&quot;:0};" vertex="1" parent="R1UwBUNqDxqeCILbl6Mw-5">
          <mxGeometry x="15" y="107" width="10" height="203" as="geometry" />
        </mxCell>
        <mxCell id="R1UwBUNqDxqeCILbl6Mw-7" value="" style="html=1;points=[];perimeter=orthogonalPerimeter;outlineConnect=0;targetShapes=umlLifeline;portConstraint=eastwest;newEdgeStyle={&quot;edgeStyle&quot;:&quot;elbowEdgeStyle&quot;,&quot;elbow&quot;:&quot;vertical&quot;,&quot;curved&quot;:0,&quot;rounded&quot;:0};" vertex="1" parent="R1UwBUNqDxqeCILbl6Mw-5">
          <mxGeometry x="15" y="1114" width="10" height="296" as="geometry" />
        </mxCell>
        <mxCell id="R1UwBUNqDxqeCILbl6Mw-8" style="edgeStyle=elbowEdgeStyle;rounded=0;orthogonalLoop=1;jettySize=auto;html=1;elbow=vertical;curved=0;" edge="1" parent="1" source="R1UwBUNqDxqeCILbl6Mw-10">
          <mxGeometry relative="1" as="geometry">
            <mxPoint x="3458" y="1934" as="targetPoint" />
          </mxGeometry>
        </mxCell>
        <mxCell id="R1UwBUNqDxqeCILbl6Mw-9" style="edgeStyle=elbowEdgeStyle;rounded=0;orthogonalLoop=1;jettySize=auto;html=1;elbow=vertical;curved=0;" edge="1" parent="1">
          <mxGeometry relative="1" as="geometry">
            <mxPoint x="2968" y="2232.75" as="targetPoint" />
            <mxPoint x="3207.499999999999" y="2232.539473684211" as="sourcePoint" />
          </mxGeometry>
        </mxCell>
        <mxCell id="R1UwBUNqDxqeCILbl6Mw-10" value="" style="shape=umlLifeline;perimeter=lifelinePerimeter;whiteSpace=wrap;html=1;container=1;dropTarget=0;collapsible=0;recursiveResize=0;outlineConnect=0;portConstraint=eastwest;newEdgeStyle={&quot;edgeStyle&quot;:&quot;elbowEdgeStyle&quot;,&quot;elbow&quot;:&quot;vertical&quot;,&quot;curved&quot;:0,&quot;rounded&quot;:0};participant=umlControl;" vertex="1" parent="1">
          <mxGeometry x="3188" y="1734" width="40" height="1460" as="geometry" />
        </mxCell>
        <mxCell id="R1UwBUNqDxqeCILbl6Mw-11" style="edgeStyle=elbowEdgeStyle;rounded=0;orthogonalLoop=1;jettySize=auto;html=1;elbow=vertical;curved=0;" edge="1" parent="R1UwBUNqDxqeCILbl6Mw-10" source="R1UwBUNqDxqeCILbl6Mw-12">
          <mxGeometry relative="1" as="geometry">
            <mxPoint x="-220" y="317" as="targetPoint" />
          </mxGeometry>
        </mxCell>
        <mxCell id="R1UwBUNqDxqeCILbl6Mw-12" value="" style="html=1;points=[];perimeter=orthogonalPerimeter;outlineConnect=0;targetShapes=umlLifeline;portConstraint=eastwest;newEdgeStyle={&quot;edgeStyle&quot;:&quot;elbowEdgeStyle&quot;,&quot;elbow&quot;:&quot;vertical&quot;,&quot;curved&quot;:0,&quot;rounded&quot;:0};" vertex="1" parent="R1UwBUNqDxqeCILbl6Mw-10">
          <mxGeometry x="15" y="100" width="10" height="1340" as="geometry" />
        </mxCell>
        <mxCell id="R1UwBUNqDxqeCILbl6Mw-13" style="edgeStyle=elbowEdgeStyle;rounded=0;orthogonalLoop=1;jettySize=auto;html=1;elbow=vertical;curved=0;" edge="1" parent="1">
          <mxGeometry relative="1" as="geometry">
            <mxPoint x="2648" y="1864" as="targetPoint" />
            <mxPoint x="2445" y="1865" as="sourcePoint" />
          </mxGeometry>
        </mxCell>
        <mxCell id="R1UwBUNqDxqeCILbl6Mw-14" value="" style="shape=umlLifeline;perimeter=lifelinePerimeter;whiteSpace=wrap;html=1;container=1;dropTarget=0;collapsible=0;recursiveResize=0;outlineConnect=0;portConstraint=eastwest;newEdgeStyle={&quot;edgeStyle&quot;:&quot;elbowEdgeStyle&quot;,&quot;elbow&quot;:&quot;vertical&quot;,&quot;curved&quot;:0,&quot;rounded&quot;:0};participant=umlBoundary;" vertex="1" parent="1">
          <mxGeometry x="2913" y="1742" width="50" height="1469" as="geometry" />
        </mxCell>
        <mxCell id="R1UwBUNqDxqeCILbl6Mw-15" value="" style="html=1;points=[];perimeter=orthogonalPerimeter;outlineConnect=0;targetShapes=umlLifeline;portConstraint=eastwest;newEdgeStyle={&quot;edgeStyle&quot;:&quot;elbowEdgeStyle&quot;,&quot;elbow&quot;:&quot;vertical&quot;,&quot;curved&quot;:0,&quot;rounded&quot;:0};" vertex="1" parent="R1UwBUNqDxqeCILbl6Mw-14">
          <mxGeometry x="20" y="234" width="10" height="716" as="geometry" />
        </mxCell>
        <mxCell id="R1UwBUNqDxqeCILbl6Mw-16" style="edgeStyle=elbowEdgeStyle;rounded=0;orthogonalLoop=1;jettySize=auto;html=1;elbow=vertical;curved=0;" edge="1" parent="1">
          <mxGeometry relative="1" as="geometry">
            <mxPoint x="3198" y="1892" as="targetPoint" />
            <mxPoint x="2688" y="1892" as="sourcePoint" />
          </mxGeometry>
        </mxCell>
        <mxCell id="R1UwBUNqDxqeCILbl6Mw-17" value="Klik Tombol&lt;br&gt;editNotaPembelian()" style="text;whiteSpace=wrap;html=1;" vertex="1" parent="1">
          <mxGeometry x="2703" y="1831.57" width="140" height="50" as="geometry" />
        </mxCell>
        <mxCell id="R1UwBUNqDxqeCILbl6Mw-18" style="edgeStyle=elbowEdgeStyle;rounded=0;orthogonalLoop=1;jettySize=auto;html=1;elbow=vertical;curved=0;" edge="1" parent="1">
          <mxGeometry relative="1" as="geometry">
            <mxPoint x="3197.5" y="2729.91" as="targetPoint" />
            <mxPoint x="2668" y="2729.91" as="sourcePoint" />
          </mxGeometry>
        </mxCell>
        <mxCell id="R1UwBUNqDxqeCILbl6Mw-19" value="Klik Tombol&lt;br&gt;HapusBarang()" style="text;whiteSpace=wrap;html=1;" vertex="1" parent="1">
          <mxGeometry x="2694" y="2669.91" width="140" height="50" as="geometry" />
        </mxCell>
        <mxCell id="R1UwBUNqDxqeCILbl6Mw-20" value="Query getDataNota()" style="text;whiteSpace=wrap;html=1;" vertex="1" parent="1">
          <mxGeometry x="3288" y="1900.25" width="140" height="73.75" as="geometry" />
        </mxCell>
        <mxCell id="R1UwBUNqDxqeCILbl6Mw-21" value="Return Data Informasi Nota" style="text;whiteSpace=wrap;html=1;" vertex="1" parent="1">
          <mxGeometry x="3289" y="1961" width="140" height="70" as="geometry" />
        </mxCell>
        <mxCell id="R1UwBUNqDxqeCILbl6Mw-22" style="edgeStyle=elbowEdgeStyle;rounded=0;orthogonalLoop=1;jettySize=auto;html=1;elbow=vertical;curved=0;" edge="1" parent="1">
          <mxGeometry relative="1" as="geometry">
            <mxPoint x="3463" y="2904.75" as="targetPoint" />
            <mxPoint x="3212" y="2904.75" as="sourcePoint" />
          </mxGeometry>
        </mxCell>
        <mxCell id="R1UwBUNqDxqeCILbl6Mw-23" value="Query deleteData()" style="text;whiteSpace=wrap;html=1;" vertex="1" parent="1">
          <mxGeometry x="3293" y="2871" width="140" height="73.75" as="geometry" />
        </mxCell>
        <mxCell id="R1UwBUNqDxqeCILbl6Mw-24" value="menampilkanDataNota()" style="text;whiteSpace=wrap;html=1;" vertex="1" parent="1">
          <mxGeometry x="3008" y="2011" width="140" height="70" as="geometry" />
        </mxCell>
        <mxCell id="R1UwBUNqDxqeCILbl6Mw-25" style="edgeStyle=elbowEdgeStyle;rounded=0;orthogonalLoop=1;jettySize=auto;html=1;elbow=vertical;curved=0;" edge="1" parent="1">
          <mxGeometry relative="1" as="geometry">
            <mxPoint x="3188" y="2147.87" as="targetPoint" />
            <mxPoint x="2938" y="2147.87" as="sourcePoint" />
          </mxGeometry>
        </mxCell>
        <mxCell id="R1UwBUNqDxqeCILbl6Mw-26" value="Klik Tombol&lt;br&gt;editNotaPembelian()" style="text;whiteSpace=wrap;html=1;" vertex="1" parent="1">
          <mxGeometry x="2988" y="2099" width="140" height="73.75" as="geometry" />
        </mxCell>
        <mxCell id="R1UwBUNqDxqeCILbl6Mw-27" value=" " style="group;movable=1;resizable=1;rotatable=1;deletable=1;editable=1;locked=0;connectable=1;" vertex="1" connectable="0" parent="1">
          <mxGeometry x="2738" y="2371" width="825" height="220" as="geometry" />
        </mxCell>
        <mxCell id="R1UwBUNqDxqeCILbl6Mw-28" value="Alternative" style="shape=umlFrame;whiteSpace=wrap;html=1;pointerEvents=0;recursiveResize=0;container=0;collapsible=0;width=170;movable=1;resizable=1;rotatable=1;deletable=1;editable=1;locked=0;connectable=1;" vertex="1" parent="R1UwBUNqDxqeCILbl6Mw-27">
          <mxGeometry x="-2.2448979591836733" width="821.4592274678112" height="220" as="geometry" />
        </mxCell>
        <mxCell id="R1UwBUNqDxqeCILbl6Mw-29" value="" style="line;strokeWidth=1;dashed=1;labelPosition=center;verticalLabelPosition=bottom;align=left;verticalAlign=top;spacingLeft=20;spacingTop=15;html=1;whiteSpace=wrap;" vertex="1" parent="R1UwBUNqDxqeCILbl6Mw-27">
          <mxGeometry y="100.83" width="820" height="18.33" as="geometry" />
        </mxCell>
        <mxCell id="R1UwBUNqDxqeCILbl6Mw-30" value="[Berhasil]" style="text;align=center;fontStyle=1;verticalAlign=middle;spacingLeft=3;spacingRight=3;strokeColor=none;rotatable=0;points=[[0,0.5],[1,0.5]];portConstraint=eastwest;html=1;" vertex="1" parent="R1UwBUNqDxqeCILbl6Mw-27">
          <mxGeometry x="11.224489795918366" y="39.99666666666666" width="60.273972602739725" height="23.833333333333336" as="geometry" />
        </mxCell>
        <mxCell id="R1UwBUNqDxqeCILbl6Mw-31" style="edgeStyle=elbowEdgeStyle;rounded=0;orthogonalLoop=1;jettySize=auto;html=1;elbow=vertical;curved=0;dashed=1;" edge="1" parent="R1UwBUNqDxqeCILbl6Mw-27">
          <mxGeometry relative="1" as="geometry">
            <mxPoint x="489.9995918367346" y="161" as="targetPoint" />
            <mxPoint x="740" y="161" as="sourcePoint" />
          </mxGeometry>
        </mxCell>
        <mxCell id="R1UwBUNqDxqeCILbl6Mw-32" value="Return data Informasi gagal" style="text;whiteSpace=wrap;html=1;" vertex="1" parent="R1UwBUNqDxqeCILbl6Mw-27">
          <mxGeometry x="521.9387755102041" y="120" width="157.14285714285714" height="70" as="geometry" />
        </mxCell>
        <mxCell id="R1UwBUNqDxqeCILbl6Mw-33" style="edgeStyle=elbowEdgeStyle;rounded=0;orthogonalLoop=1;jettySize=auto;html=1;elbow=vertical;curved=0;dashed=1;" edge="1" parent="R1UwBUNqDxqeCILbl6Mw-27">
          <mxGeometry relative="1" as="geometry">
            <mxPoint x="220" y="189" as="targetPoint" />
            <mxPoint x="465.66714285714284" y="189.42000000000002" as="sourcePoint" />
          </mxGeometry>
        </mxCell>
        <mxCell id="R1UwBUNqDxqeCILbl6Mw-34" value="Menampilkan pesan&lt;br&gt;&quot;Gagal Mengubah Nota&quot;" style="text;whiteSpace=wrap;html=1;" vertex="1" parent="R1UwBUNqDxqeCILbl6Mw-27">
          <mxGeometry x="269.9995918367347" y="140" width="157.14285714285714" height="70" as="geometry" />
        </mxCell>
        <mxCell id="R1UwBUNqDxqeCILbl6Mw-35" value="[Else]" style="text;whiteSpace=wrap;html=1;" vertex="1" parent="R1UwBUNqDxqeCILbl6Mw-27">
          <mxGeometry x="11.2199999999998" y="130" width="80" height="40" as="geometry" />
        </mxCell>
        <mxCell id="R1UwBUNqDxqeCILbl6Mw-36" value="" style="html=1;points=[];perimeter=orthogonalPerimeter;outlineConnect=0;targetShapes=umlLifeline;portConstraint=eastwest;newEdgeStyle={&quot;edgeStyle&quot;:&quot;elbowEdgeStyle&quot;,&quot;elbow&quot;:&quot;vertical&quot;,&quot;curved&quot;:0,&quot;rounded&quot;:0};" vertex="1" parent="R1UwBUNqDxqeCILbl6Mw-27">
          <mxGeometry x="740" y="-73" width="10" height="263" as="geometry" />
        </mxCell>
        <mxCell id="R1UwBUNqDxqeCILbl6Mw-37" value="Menampilkan Pesan&lt;br&gt;&quot;Yakin Ingin Mengubah Data ini?&quot;" style="text;whiteSpace=wrap;html=1;" vertex="1" parent="1">
          <mxGeometry x="3008" y="2172.75" width="140" height="73.75" as="geometry" />
        </mxCell>
        <mxCell id="R1UwBUNqDxqeCILbl6Mw-38" style="edgeStyle=elbowEdgeStyle;rounded=0;orthogonalLoop=1;jettySize=auto;html=1;elbow=vertical;curved=0;" edge="1" parent="1">
          <mxGeometry relative="1" as="geometry">
            <mxPoint x="3188" y="2299.87" as="targetPoint" />
            <mxPoint x="2938" y="2299.87" as="sourcePoint" />
          </mxGeometry>
        </mxCell>
        <mxCell id="R1UwBUNqDxqeCILbl6Mw-39" value="Klik Tombol&lt;br&gt;KonfirmasiMengubahNota()" style="text;whiteSpace=wrap;html=1;" vertex="1" parent="1">
          <mxGeometry x="2988" y="2251" width="140" height="73.75" as="geometry" />
        </mxCell>
        <mxCell id="R1UwBUNqDxqeCILbl6Mw-40" style="edgeStyle=elbowEdgeStyle;rounded=0;orthogonalLoop=1;jettySize=auto;html=1;elbow=vertical;curved=0;" edge="1" parent="1">
          <mxGeometry relative="1" as="geometry">
            <mxPoint x="3463" y="2351" as="targetPoint" />
            <mxPoint x="3212" y="2351" as="sourcePoint" />
          </mxGeometry>
        </mxCell>
        <mxCell id="R1UwBUNqDxqeCILbl6Mw-41" value="Query updateDataNota()" style="text;whiteSpace=wrap;html=1;" vertex="1" parent="1">
          <mxGeometry x="3293" y="2317.25" width="140" height="73.75" as="geometry" />
        </mxCell>
        <mxCell id="R1UwBUNqDxqeCILbl6Mw-42" style="edgeStyle=elbowEdgeStyle;rounded=0;orthogonalLoop=1;jettySize=auto;html=1;elbow=vertical;curved=0;dashed=1;" edge="1" parent="1">
          <mxGeometry relative="1" as="geometry">
            <mxPoint x="3228" y="2432" as="targetPoint" />
            <mxPoint x="3482.5" y="2432" as="sourcePoint" />
          </mxGeometry>
        </mxCell>
        <mxCell id="R1UwBUNqDxqeCILbl6Mw-43" value="Return data Informasi sukses " style="text;whiteSpace=wrap;html=1;" vertex="1" parent="1">
          <mxGeometry x="3293" y="2391" width="140" height="70" as="geometry" />
        </mxCell>
        <mxCell id="R1UwBUNqDxqeCILbl6Mw-44" style="edgeStyle=elbowEdgeStyle;rounded=0;orthogonalLoop=1;jettySize=auto;html=1;elbow=vertical;curved=0;dashed=1;" edge="1" parent="1">
          <mxGeometry relative="1" as="geometry">
            <mxPoint x="2958" y="2462" as="targetPoint" />
            <mxPoint x="3205.25" y="2462" as="sourcePoint" />
          </mxGeometry>
        </mxCell>
        <mxCell id="R1UwBUNqDxqeCILbl6Mw-45" value="Menampilkan pesan&lt;br&gt;&quot;Sukses Mengubah Nota&quot;" style="text;whiteSpace=wrap;html=1;" vertex="1" parent="1">
          <mxGeometry x="2998" y="2411" width="140" height="70" as="geometry" />
        </mxCell>
        <mxCell id="R1UwBUNqDxqeCILbl6Mw-46" style="edgeStyle=elbowEdgeStyle;rounded=0;orthogonalLoop=1;jettySize=auto;html=1;elbow=vertical;curved=0;" edge="1" parent="1">
          <mxGeometry relative="1" as="geometry">
            <mxPoint x="2708" y="2801" as="targetPoint" />
            <mxPoint x="3192.749999999999" y="2800.789473684211" as="sourcePoint" />
          </mxGeometry>
        </mxCell>
        <mxCell id="R1UwBUNqDxqeCILbl6Mw-47" value="Menampilkan Pesan&lt;br&gt;&quot;Yakin Ingin Menghapus Nota ini?&quot;" style="text;whiteSpace=wrap;html=1;" vertex="1" parent="1">
          <mxGeometry x="2993.25" y="2741" width="140" height="73.75" as="geometry" />
        </mxCell>
        <mxCell id="R1UwBUNqDxqeCILbl6Mw-48" style="edgeStyle=elbowEdgeStyle;rounded=0;orthogonalLoop=1;jettySize=auto;html=1;elbow=vertical;curved=0;" edge="1" parent="1">
          <mxGeometry relative="1" as="geometry">
            <mxPoint x="3158" y="2864" as="targetPoint" />
            <mxPoint x="2688" y="2863.62" as="sourcePoint" />
          </mxGeometry>
        </mxCell>
        <mxCell id="R1UwBUNqDxqeCILbl6Mw-49" value="Klik Tombol&lt;br&gt;KonfirmasiHapus()" style="text;whiteSpace=wrap;html=1;" vertex="1" parent="1">
          <mxGeometry x="2738" y="2821" width="140" height="73.75" as="geometry" />
        </mxCell>
        <mxCell id="R1UwBUNqDxqeCILbl6Mw-50" style="edgeStyle=elbowEdgeStyle;rounded=0;orthogonalLoop=1;jettySize=auto;html=1;elbow=vertical;curved=0;dashed=1;" edge="1" parent="1">
          <mxGeometry relative="1" as="geometry">
            <mxPoint x="3228" y="3002" as="targetPoint" />
            <mxPoint x="3482.5" y="3002" as="sourcePoint" />
          </mxGeometry>
        </mxCell>
        <mxCell id="R1UwBUNqDxqeCILbl6Mw-51" value="Return data Informasi sukses " style="text;whiteSpace=wrap;html=1;" vertex="1" parent="1">
          <mxGeometry x="3293" y="2961" width="140" height="70" as="geometry" />
        </mxCell>
        <mxCell id="R1UwBUNqDxqeCILbl6Mw-52" value="Alternative" style="shape=umlFrame;whiteSpace=wrap;html=1;pointerEvents=0;recursiveResize=0;container=0;collapsible=0;width=170;movable=1;resizable=1;rotatable=1;deletable=1;editable=1;locked=0;connectable=1;" vertex="1" parent="1">
          <mxGeometry x="2466.060408163265" y="2944.75" width="1090.3004291845493" height="220" as="geometry" />
        </mxCell>
        <mxCell id="R1UwBUNqDxqeCILbl6Mw-53" value="" style="line;strokeWidth=1;dashed=1;labelPosition=center;verticalLabelPosition=bottom;align=left;verticalAlign=top;spacingLeft=20;spacingTop=15;html=1;whiteSpace=wrap;" vertex="1" parent="1">
          <mxGeometry x="2468" y="3041.83" width="1088.3636363636363" height="18.33" as="geometry" />
        </mxCell>
        <mxCell id="R1UwBUNqDxqeCILbl6Mw-54" value="[Berhasil]" style="text;align=center;fontStyle=1;verticalAlign=middle;spacingLeft=3;spacingRight=3;strokeColor=none;rotatable=0;points=[[0,0.5],[1,0.5]];portConstraint=eastwest;html=1;" vertex="1" parent="1">
          <mxGeometry x="2482.8979591836733" y="2980.996666666667" width="80" height="23.833333333333336" as="geometry" />
        </mxCell>
        <mxCell id="R1UwBUNqDxqeCILbl6Mw-55" style="edgeStyle=elbowEdgeStyle;rounded=0;orthogonalLoop=1;jettySize=auto;html=1;elbow=vertical;curved=0;dashed=1;" edge="1" parent="1" source="R1UwBUNqDxqeCILbl6Mw-10">
          <mxGeometry relative="1" as="geometry">
            <mxPoint x="2708" y="3131" as="targetPoint" />
            <mxPoint x="3086.0672987012986" y="3130.42" as="sourcePoint" />
          </mxGeometry>
        </mxCell>
        <mxCell id="R1UwBUNqDxqeCILbl6Mw-56" value="Menampilkan pesan&lt;br&gt;&quot;gagal Menghapus Nota&quot;" style="text;whiteSpace=wrap;html=1;" vertex="1" parent="1">
          <mxGeometry x="2979.433094619666" y="3081" width="208.57142857142858" height="70" as="geometry" />
        </mxCell>
        <mxCell id="R1UwBUNqDxqeCILbl6Mw-57" value="[Else]" style="text;whiteSpace=wrap;html=1;" vertex="1" parent="1">
          <mxGeometry x="2482.892" y="3071" width="106.18181818181819" height="40" as="geometry" />
        </mxCell>
        <mxCell id="R1UwBUNqDxqeCILbl6Mw-58" style="edgeStyle=elbowEdgeStyle;rounded=0;orthogonalLoop=1;jettySize=auto;html=1;elbow=vertical;curved=0;dashed=1;" edge="1" parent="1">
          <mxGeometry relative="1" as="geometry">
            <mxPoint x="3228" y="3112" as="targetPoint" />
            <mxPoint x="3482.5" y="3112" as="sourcePoint" />
          </mxGeometry>
        </mxCell>
        <mxCell id="R1UwBUNqDxqeCILbl6Mw-59" value="Return data Informasi Gagal " style="text;whiteSpace=wrap;html=1;" vertex="1" parent="1">
          <mxGeometry x="3293" y="3071" width="140" height="70" as="geometry" />
        </mxCell>
        <mxCell id="R1UwBUNqDxqeCILbl6Mw-60" value="Menampilkan pesan&lt;br&gt;&quot;Sukses Menghapus Nota&quot;" style="text;whiteSpace=wrap;html=1;" vertex="1" parent="1">
          <mxGeometry x="3003" y="2971.83" width="140" height="70" as="geometry" />
        </mxCell>
        <mxCell id="R1UwBUNqDxqeCILbl6Mw-61" style="edgeStyle=elbowEdgeStyle;rounded=0;orthogonalLoop=1;jettySize=auto;html=1;elbow=vertical;curved=0;dashed=1;" edge="1" parent="1">
          <mxGeometry relative="1" as="geometry">
            <mxPoint x="2708" y="3023" as="targetPoint" />
            <mxPoint x="3205.25" y="3022.83" as="sourcePoint" />
          </mxGeometry>
        </mxCell>
        <mxCell id="R1UwBUNqDxqeCILbl6Mw-62" value="" style="shape=umlLifeline;perimeter=lifelinePerimeter;whiteSpace=wrap;html=1;container=1;dropTarget=0;collapsible=0;recursiveResize=0;outlineConnect=0;portConstraint=eastwest;newEdgeStyle={&quot;edgeStyle&quot;:&quot;elbowEdgeStyle&quot;,&quot;elbow&quot;:&quot;vertical&quot;,&quot;curved&quot;:0,&quot;rounded&quot;:0};participant=umlActor;" vertex="1" parent="1">
          <mxGeometry x="2432.9" y="1725" width="20" height="1697" as="geometry" />
        </mxCell>
        <mxCell id="R1UwBUNqDxqeCILbl6Mw-63" value="&lt;div align=&quot;center&quot;&gt;Halaman&lt;br&gt;Daftar Nota&lt;br&gt;&lt;/div&gt;" style="text;whiteSpace=wrap;html=1;fontSize=19;align=center;" vertex="1" parent="1">
          <mxGeometry x="2548" y="1654" width="240" height="50" as="geometry" />
        </mxCell>
        <mxCell id="R1UwBUNqDxqeCILbl6Mw-64" value="&lt;div align=&quot;center&quot;&gt;Halaman&lt;br&gt;Edit Nota&lt;br&gt;&lt;/div&gt;" style="text;whiteSpace=wrap;html=1;fontSize=19;align=center;" vertex="1" parent="1">
          <mxGeometry x="2808" y="1662" width="240" height="50" as="geometry" />
        </mxCell>
        <mxCell id="R1UwBUNqDxqeCILbl6Mw-65" value="Staff Penjualan" style="text;whiteSpace=wrap;html=1;fontSize=19;align=center;" vertex="1" parent="1">
          <mxGeometry x="2338" y="1671" width="240" height="40" as="geometry" />
        </mxCell>
        <mxCell id="R1UwBUNqDxqeCILbl6Mw-66" value="Data Daftar Nota" style="text;whiteSpace=wrap;html=1;align=center;fontSize=18;" vertex="1" parent="1">
          <mxGeometry x="3413" y="1659" width="130" height="40" as="geometry" />
        </mxCell>
        <mxCell id="R1UwBUNqDxqeCILbl6Mw-67" value="Control Data &lt;br style=&quot;font-size: 19px;&quot;&gt;&lt;div style=&quot;font-size: 19px;&quot;&gt;Daftar Nota&lt;/div&gt;" style="text;whiteSpace=wrap;html=1;align=center;fontSize=19;" vertex="1" parent="1">
          <mxGeometry x="3118" y="1659" width="170" height="40" as="geometry" />
        </mxCell>
      </root>
    </mxGraphModel>
  </diagram>
  <diagram id="JZkgVvOgvX2tcruCWpCh" name="Page-7">
    <mxGraphModel dx="907" dy="-528" grid="1" gridSize="10" guides="1" tooltips="1" connect="1" arrows="1" fold="1" page="1" pageScale="1" pageWidth="1169" pageHeight="827" math="0" shadow="0">
      <root>
        <mxCell id="0" />
        <mxCell id="1" parent="0" />
        <mxCell id="2pbuMGfKaor_1m1yd0fF-1" value="" style="shape=umlLifeline;perimeter=lifelinePerimeter;whiteSpace=wrap;html=1;container=1;dropTarget=0;collapsible=0;recursiveResize=0;outlineConnect=0;portConstraint=eastwest;newEdgeStyle={&quot;edgeStyle&quot;:&quot;elbowEdgeStyle&quot;,&quot;elbow&quot;:&quot;vertical&quot;,&quot;curved&quot;:0,&quot;rounded&quot;:0};participant=umlBoundary;" vertex="1" parent="1">
          <mxGeometry x="1584" y="1724" width="50" height="696" as="geometry" />
        </mxCell>
        <mxCell id="2pbuMGfKaor_1m1yd0fF-2" value="" style="html=1;points=[];perimeter=orthogonalPerimeter;outlineConnect=0;targetShapes=umlLifeline;portConstraint=eastwest;newEdgeStyle={&quot;edgeStyle&quot;:&quot;elbowEdgeStyle&quot;,&quot;elbow&quot;:&quot;vertical&quot;,&quot;curved&quot;:0,&quot;rounded&quot;:0};" vertex="1" parent="2pbuMGfKaor_1m1yd0fF-1">
          <mxGeometry x="20" y="90" width="10" height="570" as="geometry" />
        </mxCell>
        <mxCell id="2pbuMGfKaor_1m1yd0fF-3" value="" style="shape=umlLifeline;perimeter=lifelinePerimeter;whiteSpace=wrap;html=1;container=1;dropTarget=0;collapsible=0;recursiveResize=0;outlineConnect=0;portConstraint=eastwest;newEdgeStyle={&quot;edgeStyle&quot;:&quot;elbowEdgeStyle&quot;,&quot;elbow&quot;:&quot;vertical&quot;,&quot;curved&quot;:0,&quot;rounded&quot;:0};participant=umlControl;" vertex="1" parent="1">
          <mxGeometry x="2119" y="1724" width="40" height="696" as="geometry" />
        </mxCell>
        <mxCell id="2pbuMGfKaor_1m1yd0fF-4" value="" style="html=1;points=[];perimeter=orthogonalPerimeter;outlineConnect=0;targetShapes=umlLifeline;portConstraint=eastwest;newEdgeStyle={&quot;edgeStyle&quot;:&quot;elbowEdgeStyle&quot;,&quot;elbow&quot;:&quot;vertical&quot;,&quot;curved&quot;:0,&quot;rounded&quot;:0};" vertex="1" parent="2pbuMGfKaor_1m1yd0fF-3">
          <mxGeometry x="15" y="100" width="10" height="330" as="geometry" />
        </mxCell>
        <mxCell id="2pbuMGfKaor_1m1yd0fF-5" value="&lt;div align=&quot;center&quot;&gt;Halaman&lt;br&gt;Daftar Nota&lt;br&gt;&lt;/div&gt;" style="text;whiteSpace=wrap;html=1;fontSize=19;align=center;" vertex="1" parent="1">
          <mxGeometry x="1489" y="1654" width="240" height="50" as="geometry" />
        </mxCell>
        <mxCell id="2pbuMGfKaor_1m1yd0fF-6" style="edgeStyle=elbowEdgeStyle;rounded=0;orthogonalLoop=1;jettySize=auto;html=1;elbow=vertical;curved=0;" edge="1" parent="1" source="2pbuMGfKaor_1m1yd0fF-7">
          <mxGeometry relative="1" as="geometry">
            <mxPoint x="1579" y="1854" as="targetPoint" />
          </mxGeometry>
        </mxCell>
        <mxCell id="2pbuMGfKaor_1m1yd0fF-7" value="" style="shape=umlLifeline;perimeter=lifelinePerimeter;whiteSpace=wrap;html=1;container=1;dropTarget=0;collapsible=0;recursiveResize=0;outlineConnect=0;portConstraint=eastwest;newEdgeStyle={&quot;edgeStyle&quot;:&quot;elbowEdgeStyle&quot;,&quot;elbow&quot;:&quot;vertical&quot;,&quot;curved&quot;:0,&quot;rounded&quot;:0};participant=umlActor;" vertex="1" parent="1">
          <mxGeometry x="1369" y="1734" width="20" height="666" as="geometry" />
        </mxCell>
        <mxCell id="2pbuMGfKaor_1m1yd0fF-8" style="edgeStyle=elbowEdgeStyle;rounded=0;orthogonalLoop=1;jettySize=auto;html=1;elbow=vertical;curved=0;" edge="1" parent="1" source="2pbuMGfKaor_1m1yd0fF-9">
          <mxGeometry relative="1" as="geometry">
            <mxPoint x="2109" y="1904" as="targetPoint" />
          </mxGeometry>
        </mxCell>
        <mxCell id="2pbuMGfKaor_1m1yd0fF-9" value="" style="shape=umlLifeline;perimeter=lifelinePerimeter;whiteSpace=wrap;html=1;container=1;dropTarget=0;collapsible=0;recursiveResize=0;outlineConnect=0;portConstraint=eastwest;newEdgeStyle={&quot;edgeStyle&quot;:&quot;elbowEdgeStyle&quot;,&quot;elbow&quot;:&quot;vertical&quot;,&quot;curved&quot;:0,&quot;rounded&quot;:0};participant=umlBoundary;" vertex="1" parent="1">
          <mxGeometry x="1844" y="1732" width="50" height="728" as="geometry" />
        </mxCell>
        <mxCell id="2pbuMGfKaor_1m1yd0fF-10" value="" style="html=1;points=[];perimeter=orthogonalPerimeter;outlineConnect=0;targetShapes=umlLifeline;portConstraint=eastwest;newEdgeStyle={&quot;edgeStyle&quot;:&quot;elbowEdgeStyle&quot;,&quot;elbow&quot;:&quot;vertical&quot;,&quot;curved&quot;:0,&quot;rounded&quot;:0};" vertex="1" parent="2pbuMGfKaor_1m1yd0fF-9">
          <mxGeometry x="20" y="78" width="10" height="572" as="geometry" />
        </mxCell>
        <mxCell id="2pbuMGfKaor_1m1yd0fF-11" value="&lt;div align=&quot;center&quot;&gt;Halaman&lt;br&gt;Cetak Nota&lt;br&gt;&lt;/div&gt;" style="text;whiteSpace=wrap;html=1;fontSize=19;align=center;" vertex="1" parent="1">
          <mxGeometry x="1749" y="1662" width="240" height="50" as="geometry" />
        </mxCell>
        <mxCell id="2pbuMGfKaor_1m1yd0fF-12" style="edgeStyle=elbowEdgeStyle;rounded=0;orthogonalLoop=1;jettySize=auto;html=1;elbow=vertical;curved=0;" edge="1" parent="1">
          <mxGeometry relative="1" as="geometry">
            <mxPoint x="1819" y="1881.5699999999997" as="targetPoint" />
            <mxPoint x="1608" y="1881.5699999999997" as="sourcePoint" />
          </mxGeometry>
        </mxCell>
        <mxCell id="2pbuMGfKaor_1m1yd0fF-13" value="Klik Tombol&lt;br&gt;cetakNota()" style="text;whiteSpace=wrap;html=1;" vertex="1" parent="1">
          <mxGeometry x="1634" y="1821.5699999999997" width="140" height="50" as="geometry" />
        </mxCell>
        <mxCell id="2pbuMGfKaor_1m1yd0fF-14" value="&lt;br&gt;cetakNota()" style="text;whiteSpace=wrap;html=1;" vertex="1" parent="1">
          <mxGeometry x="1919" y="1854" width="140" height="70" as="geometry" />
        </mxCell>
        <mxCell id="2pbuMGfKaor_1m1yd0fF-15" value="Staff Penjualan" style="text;whiteSpace=wrap;html=1;fontSize=19;align=center;" vertex="1" parent="1">
          <mxGeometry x="1279" y="1671" width="240" height="40" as="geometry" />
        </mxCell>
        <mxCell id="2pbuMGfKaor_1m1yd0fF-16" value="Klik Tombol&lt;br&gt;LihatDataNota()" style="text;whiteSpace=wrap;html=1;" vertex="1" parent="1">
          <mxGeometry x="1399" y="1801.08" width="140" height="50" as="geometry" />
        </mxCell>
        <mxCell id="2pbuMGfKaor_1m1yd0fF-17" value="Control Data &lt;br style=&quot;font-size: 19px;&quot;&gt;&lt;div style=&quot;font-size: 19px;&quot;&gt;Daftar Nota&lt;/div&gt;" style="text;whiteSpace=wrap;html=1;align=center;fontSize=19;" vertex="1" parent="1">
          <mxGeometry x="2059" y="1659" width="170" height="40" as="geometry" />
        </mxCell>
        <mxCell id="2pbuMGfKaor_1m1yd0fF-18" style="edgeStyle=elbowEdgeStyle;rounded=0;orthogonalLoop=1;jettySize=auto;html=1;elbow=vertical;curved=0;" edge="1" parent="1">
          <mxGeometry relative="1" as="geometry">
            <mxPoint x="1879.25" y="2031" as="targetPoint" />
            <mxPoint x="2118.749999999999" y="2030.7894736842109" as="sourcePoint" />
          </mxGeometry>
        </mxCell>
        <mxCell id="2pbuMGfKaor_1m1yd0fF-19" value="Menampilkan Pesan&lt;br&gt;&quot;Yakin Ingin Mencetak Nota ini?&quot;" style="text;whiteSpace=wrap;html=1;" vertex="1" parent="1">
          <mxGeometry x="1919.25" y="1971" width="140" height="73.75" as="geometry" />
        </mxCell>
        <mxCell id="2pbuMGfKaor_1m1yd0fF-20" style="edgeStyle=elbowEdgeStyle;rounded=0;orthogonalLoop=1;jettySize=auto;html=1;elbow=vertical;curved=0;" edge="1" parent="1">
          <mxGeometry relative="1" as="geometry">
            <mxPoint x="2119" y="2105.88" as="targetPoint" />
            <mxPoint x="1879" y="2106" as="sourcePoint" />
          </mxGeometry>
        </mxCell>
        <mxCell id="2pbuMGfKaor_1m1yd0fF-21" value="Klik Tombol&lt;br&gt;konfirmasiCetakNota()" style="text;whiteSpace=wrap;html=1;" vertex="1" parent="1">
          <mxGeometry x="1909" y="2054.13" width="140" height="73.75" as="geometry" />
        </mxCell>
        <mxCell id="2pbuMGfKaor_1m1yd0fF-22" value="" style="group" vertex="1" connectable="0" parent="1">
          <mxGeometry x="1169" y="2119.91" width="740" height="194.09" as="geometry" />
        </mxCell>
        <mxCell id="2pbuMGfKaor_1m1yd0fF-23" value="" style="group;movable=1;resizable=1;rotatable=1;deletable=1;editable=1;locked=0;connectable=1;" vertex="1" connectable="0" parent="2pbuMGfKaor_1m1yd0fF-22">
          <mxGeometry width="740" height="194.09" as="geometry" />
        </mxCell>
        <mxCell id="2pbuMGfKaor_1m1yd0fF-24" value="Alternative" style="shape=umlFrame;whiteSpace=wrap;html=1;pointerEvents=0;recursiveResize=0;container=0;collapsible=0;width=170;movable=1;resizable=1;rotatable=1;deletable=1;editable=1;locked=0;connectable=1;" vertex="1" parent="2pbuMGfKaor_1m1yd0fF-23">
          <mxGeometry width="736.824034334764" height="194.09" as="geometry" />
        </mxCell>
        <mxCell id="2pbuMGfKaor_1m1yd0fF-25" value="[else]" style="line;strokeWidth=1;dashed=1;labelPosition=center;verticalLabelPosition=bottom;align=left;verticalAlign=top;spacingLeft=20;spacingTop=15;html=1;whiteSpace=wrap;" vertex="1" parent="2pbuMGfKaor_1m1yd0fF-23">
          <mxGeometry y="83.05531609195401" width="740" height="12.270057471264366" as="geometry" />
        </mxCell>
        <mxCell id="2pbuMGfKaor_1m1yd0fF-26" value="[Berhasil]" style="text;align=center;fontStyle=1;verticalAlign=middle;spacingLeft=3;spacingRight=3;strokeColor=none;rotatable=0;points=[[0,0.5],[1,0.5]];portConstraint=eastwest;html=1;" vertex="1" parent="2pbuMGfKaor_1m1yd0fF-23">
          <mxGeometry x="31.04895104895105" y="44.086141839080454" width="54.06392694063927" height="15.95107471264368" as="geometry" />
        </mxCell>
        <mxCell id="2pbuMGfKaor_1m1yd0fF-27" style="edgeStyle=elbowEdgeStyle;rounded=0;orthogonalLoop=1;jettySize=auto;html=1;elbow=vertical;curved=0;dashed=1;" edge="1" parent="2pbuMGfKaor_1m1yd0fF-23">
          <mxGeometry relative="1" as="geometry">
            <mxPoint x="465.73426573426576" y="139.09000000000015" as="targetPoint" />
            <mxPoint x="690" y="139.09000000000015" as="sourcePoint" />
          </mxGeometry>
        </mxCell>
        <mxCell id="2pbuMGfKaor_1m1yd0fF-28" value="Menampilkan Pesan&lt;br&gt;&quot;Gagal Mencetak Nota&quot;" style="text;whiteSpace=wrap;html=1;" vertex="1" parent="2pbuMGfKaor_1m1yd0fF-23">
          <mxGeometry x="517.4825174825176" y="104.09044172413792" width="144.8951048951049" height="46.849310344827586" as="geometry" />
        </mxCell>
        <mxCell id="2pbuMGfKaor_1m1yd0fF-29" style="edgeStyle=elbowEdgeStyle;rounded=0;orthogonalLoop=1;jettySize=auto;html=1;elbow=vertical;curved=0;dashed=1;" edge="1" parent="2pbuMGfKaor_1m1yd0fF-23">
          <mxGeometry relative="1" as="geometry">
            <mxPoint x="227.6923076923077" y="64.09000000000015" as="targetPoint" />
            <mxPoint x="444.5174825174816" y="63.389473684211225" as="sourcePoint" />
          </mxGeometry>
        </mxCell>
        <mxCell id="2pbuMGfKaor_1m1yd0fF-30" value="Mendownload File Nota" style="text;whiteSpace=wrap;html=1;" vertex="1" parent="2pbuMGfKaor_1m1yd0fF-23">
          <mxGeometry x="248.3916083916084" y="34.090000000000146" width="144.8951048951049" height="73.75" as="geometry" />
        </mxCell>
        <mxCell id="2pbuMGfKaor_1m1yd0fF-31" style="edgeStyle=elbowEdgeStyle;rounded=0;orthogonalLoop=1;jettySize=auto;html=1;elbow=vertical;curved=0;dashed=1;" edge="1" parent="1">
          <mxGeometry relative="1" as="geometry">
            <mxPoint x="1624" y="2166.63" as="targetPoint" />
            <mxPoint x="1863.499999999999" y="2166.419473684211" as="sourcePoint" />
          </mxGeometry>
        </mxCell>
        <mxCell id="2pbuMGfKaor_1m1yd0fF-32" value="Mengirim File Nota PDF" style="text;whiteSpace=wrap;html=1;" vertex="1" parent="1">
          <mxGeometry x="1674" y="2137.12" width="140" height="73.75" as="geometry" />
        </mxCell>
      </root>
    </mxGraphModel>
  </diagram>
</mxfile>
